<svg width="730" height="725" viewBox="0 0 730 725" fill="none" xmlns="http://www.w3.org/2000/svg">
<path d="M682.79 475.815C611.929 641.445 424.877 712.587 278.32 700.457C238.304 697.145 157.79 690.481 94.925 631.031C-25.804 516.861 -7.21049 278.215 108.362 137.713C123.245 119.62 226.265 -1.60643 386.803 0.0161386C504.34 1.20433 586.837 67.5993 596.869 75.8709C609.541 86.3199 637.492 111.151 662.682 150.543C721.869 243.1 727.071 372.312 682.79 475.815Z" fill="url(#paint0_linear_230_1009)"/>
<path d="M306.853 565.517L291.108 674.172H473.778L449.985 565.517H306.853Z" fill="url(#paint1_linear_230_1009)"/>
<path d="M0 217.609V541.013C0 567.618 21.2003 589.374 47.7958 590.06C165.919 593.105 579.055 600.491 691.5 598.834C710.827 598.549 726.483 583.083 727.041 563.763C729.209 488.632 732.73 307.967 719.698 224.091C716.954 206.427 702.045 193.219 684.179 192.648C585.206 189.481 147.254 179.428 34.8619 181.952C15.4781 182.387 0 198.221 0 217.609Z" fill="url(#paint2_linear_230_1009)"/>
<path d="M20.2925 216.035V523.291C20.2925 538.824 32.7612 551.481 48.2926 551.713L675.324 559.46C690.722 559.69 703.344 547.302 703.401 531.902L704.45 227.391C704.491 216.38 695.718 207.358 684.71 207.09L42.7467 194.12C30.4351 193.821 20.2925 203.72 20.2925 216.035Z" fill="url(#paint3_linear_230_1009)"/>
<path d="M708.122 572.053C708.117 572.053 708.112 572.053 708.107 572.053L20.278 560.333C19.7978 560.325 19.4154 559.929 19.4235 559.449C19.4315 558.968 19.8327 558.602 20.3077 558.594L708.137 570.314C708.617 570.322 708.999 570.718 708.991 571.198C708.983 571.673 708.595 572.053 708.122 572.053Z" fill="#91B3FA"/>
<path d="M370.992 586.366C366.567 586.366 362.966 582.765 362.966 578.34C362.966 573.915 366.567 570.314 370.992 570.314C375.418 570.314 379.018 573.915 379.018 578.34C379.018 582.765 375.418 586.366 370.992 586.366ZM370.992 572.052C367.525 572.052 364.705 574.873 364.705 578.34C364.705 581.807 367.525 584.627 370.992 584.627C374.459 584.627 377.279 581.807 377.279 578.34C377.279 574.873 374.459 572.052 370.992 572.052Z" fill="#91B3FA"/>
<path d="M513.125 703.063H245.775C238.512 703.063 233.058 697.893 234.462 692.339L237.893 678.772C238.924 674.692 243.413 671.696 248.744 671.53L506.479 663.487C512.049 663.314 516.981 666.27 518.195 670.511L524.379 692.12C525.986 697.734 520.505 703.063 513.125 703.063Z" fill="url(#paint4_linear_230_1009)"/>
<path d="M389.694 675.203C389.22 675.203 388.833 674.822 388.825 674.346C388.819 673.866 389.202 673.471 389.682 673.464L400.726 673.302C401.188 673.305 401.601 673.679 401.608 674.159C401.615 674.64 401.232 675.035 400.751 675.042L389.707 675.203C389.703 675.203 389.699 675.203 389.694 675.203Z" fill="#91B3FA"/>
<path d="M244.361 695.581C244.315 695.581 244.268 695.578 244.222 695.57C243.748 695.495 243.425 695.049 243.501 694.575L245.077 684.707C245.923 679.406 250.434 675.501 255.802 675.422L372.943 673.708C372.947 673.708 372.952 673.708 372.956 673.708C373.431 673.708 373.818 674.09 373.825 674.565C373.832 675.046 373.449 675.44 372.969 675.447L255.827 677.161C251.306 677.227 247.506 680.515 246.793 684.98L245.217 694.848C245.149 695.277 244.78 695.581 244.361 695.581Z" fill="#91B3FA"/>
<path d="M555.633 558.373L135.193 552.523V99.75C135.193 90.1467 142.978 82.3618 152.582 82.3618H539.757C548.744 82.3618 556.029 89.6468 556.029 98.6333L555.633 558.373Z" fill="#91B3FA"/>
<path d="M542.144 558.258L147.629 552.7V111.747C147.629 102.229 155.25 94.5132 164.651 94.5132H526.216C535.013 94.5132 542.144 101.734 542.144 110.64L542.144 558.258Z" fill="#BDD0FB"/>
<g opacity="0.75">
<path opacity="0.76" d="M507.608 375.367H190.697C189.442 375.367 188.424 374.35 188.424 373.095V222.152C188.424 220.897 189.442 219.879 190.697 219.879H507.608C508.863 219.879 509.881 220.897 509.881 222.152V373.095C509.881 374.35 508.863 375.367 507.608 375.367Z" fill="white"/>
<path opacity="0.76" d="M523.802 437.766H168.679C168.054 437.766 167.547 437.259 167.547 436.635V404.475C167.547 403.851 168.054 403.344 168.679 403.344H523.802C524.427 403.344 524.933 403.851 524.933 404.475V436.635C524.933 437.26 524.427 437.766 523.802 437.766Z" fill="white"/>
<path opacity="0.76" d="M522.427 494.808H168.653C167.656 494.808 166.847 494 166.847 493.002V462.192C166.847 461.194 167.656 460.386 168.653 460.386H522.427C523.425 460.386 524.233 461.194 524.233 462.192V493.002C524.233 494 523.425 494.808 522.427 494.808Z" fill="white"/>
<path opacity="0.76" d="M522.97 548.022H169.714C168.574 548.022 167.649 547.097 167.649 545.957V515.665C167.649 514.524 168.574 513.6 169.714 513.6H522.97C524.111 513.6 525.035 514.524 525.035 515.665V545.957C525.035 547.097 524.111 548.022 522.97 548.022Z" fill="white"/>
</g>
<path d="M41.7202 388.647C41.7202 388.647 86.8342 507.628 101.087 532.378C117.632 561.11 165.952 542.801 163.548 518.756C161.144 494.711 104.689 395.326 104.689 395.326L41.7202 388.647Z" fill="url(#paint5_linear_230_1009)"/>
<path d="M102.678 301.977L383.077 204.758L380.132 467.847L95.0146 404.231L102.678 301.977Z" fill="url(#paint6_linear_230_1009)"/>
<path d="M383.341 472.27C398.556 472.27 410.889 411.737 410.889 337.066C410.889 262.395 398.556 201.862 383.341 201.862C368.127 201.862 355.793 262.395 355.793 337.066C355.793 411.737 368.127 472.27 383.341 472.27Z" fill="#7D97F4"/>
<path d="M385.432 463.023C382.942 460.491 377.518 450.722 372.868 425.462C368.373 401.049 365.898 369.386 365.898 336.303C365.898 303.22 368.373 271.556 372.868 247.144C377.518 221.883 382.942 212.114 385.432 209.582C387.921 212.114 393.346 221.883 397.996 247.144C402.49 271.556 404.965 303.22 404.965 336.303C404.965 369.386 402.49 401.049 397.996 425.462C393.346 450.722 387.921 460.491 385.432 463.023Z" fill="url(#paint7_linear_230_1009)"/>
<mask id="mask0_230_1009" style="mask-type:luminance" maskUnits="userSpaceOnUse" x="365" y="209" width="73" height="255">
<path d="M385.432 463.023C382.942 460.491 377.518 450.722 372.868 425.462C368.373 401.049 365.898 369.386 365.898 336.303C365.898 303.22 368.373 271.556 372.868 247.144C377.518 221.883 382.942 212.114 385.432 209.582C387.921 212.114 393.346 221.883 397.996 247.144C402.49 271.556 437.954 303.22 437.954 336.303C437.954 369.386 402.49 401.049 397.996 425.462C393.346 450.722 387.921 460.491 385.432 463.023Z" fill="white"/>
</mask>
<g mask="url(#mask0_230_1009)">
<path d="M420.741 335.296C420.741 358.268 408.366 376.891 383.872 376.891C359.378 376.891 339.522 358.268 339.522 335.296C339.522 312.323 359.378 293.7 383.872 293.7C408.366 293.7 420.741 312.323 420.741 335.296Z" fill="url(#paint8_linear_230_1009)"/>
</g>
<path d="M57.4534 296.321C70.6439 294.789 89.5586 294.238 110.01 298.922C103.272 334.119 104.289 370.804 112.081 408.791H54.3988C45.2021 408.791 37.3603 402.111 35.9259 393.027C33.0512 374.818 29.5366 344.214 33.2842 319.634C35.1646 307.299 45.0584 297.761 57.4534 296.321Z" fill="url(#paint9_linear_230_1009)"/>
<path d="M92.0712 323.278H47.1297C45.6042 323.278 44.2584 322.478 43.5291 321.138C42.8004 319.798 42.86 318.233 43.6886 316.953C44.0355 316.417 44.751 316.266 45.2866 316.61C45.8224 316.957 45.9759 317.673 45.629 318.209C45.2679 318.767 45.242 319.449 45.5594 320.034C45.8773 320.618 46.4644 320.967 47.1297 320.967H92.0715C93.057 320.967 93.8587 320.165 93.8587 319.18V315.981C93.8587 314.996 93.057 314.194 92.0715 314.194H46.7963C46.1579 314.194 45.6407 313.677 45.6407 313.039C45.6407 312.401 46.1579 311.883 46.7963 311.883H92.0712C94.3314 311.883 96.1699 313.722 96.1699 315.981V319.18C96.1699 321.439 94.3314 323.278 92.0712 323.278Z" fill="#91B3FA"/>
<path d="M88.0642 343.181H43.1224C41.5969 343.181 40.251 342.382 39.5218 341.042C38.7931 339.702 38.8526 338.137 39.6813 336.856C40.0281 336.321 40.7439 336.17 41.2792 336.514C41.8148 336.861 41.9683 337.576 41.6215 338.113C41.2603 338.671 41.2345 339.352 41.5518 339.937C41.8697 340.521 42.4568 340.87 43.1221 340.87H88.0639C89.0494 340.87 89.8511 340.069 89.8511 339.083V335.886C89.8511 334.9 89.0494 334.098 88.0639 334.098H42.7889C42.1506 334.098 41.6334 333.58 41.6334 332.942C41.6334 332.304 42.1506 331.787 42.7889 331.787H88.0639C90.3238 331.787 92.1625 333.626 92.1625 335.886V339.083C92.1625 341.343 90.3241 343.181 88.0642 343.181Z" fill="#91B3FA"/>
<path d="M143.421 294.856C142.931 294.856 142.477 294.542 142.32 294.051C142.127 293.442 142.463 292.792 143.071 292.599L355.442 225.018C356.05 224.825 356.7 225.161 356.894 225.769C357.087 226.378 356.751 227.027 356.143 227.221L143.772 294.802C143.655 294.838 143.537 294.856 143.421 294.856Z" fill="#BDD0FB"/>
<path d="M114.703 306.595C114.247 306.595 113.816 306.325 113.633 305.877C113.391 305.286 113.674 304.611 114.265 304.37L125.195 299.902C125.786 299.659 126.461 299.945 126.702 300.535C126.944 301.126 126.661 301.8 126.07 302.042L115.139 306.509C114.997 306.569 114.848 306.595 114.703 306.595Z" fill="#BDD0FB"/>
<path d="M92.0715 366.492H47.13C45.6045 366.492 44.2589 365.692 43.5299 364.352C42.801 363.012 42.8602 361.447 43.6891 360.167C44.036 359.631 44.7515 359.479 45.2871 359.824C45.823 360.171 45.9765 360.886 45.6296 361.422C45.268 361.981 45.2421 362.664 45.5602 363.248C45.8781 363.832 46.4649 364.181 47.13 364.181H92.0718C93.0573 364.181 93.859 363.379 93.859 362.393V359.196C93.859 358.21 93.0573 357.409 92.0718 357.409H46.7965C46.1582 357.409 45.641 356.891 45.641 356.253C45.641 355.615 46.1582 355.098 46.7965 355.098H92.0715C94.3317 355.098 96.1701 356.937 96.1701 359.196V362.393C96.1701 364.653 94.3317 366.492 92.0715 366.492Z" fill="#91B3FA"/>
<path d="M96.2797 392.366H51.3379C49.8127 392.366 48.4668 391.566 47.7378 390.226C47.0089 388.887 47.0684 387.321 47.897 386.041C48.2442 385.505 48.9597 385.354 49.495 385.698C50.0306 386.045 50.1841 386.76 49.8372 387.296C49.4759 387.855 49.4497 388.537 49.7681 389.122C50.086 389.706 50.6729 390.055 51.3379 390.055H96.2797C97.2652 390.055 98.0669 389.254 98.0669 388.268V385.07C98.0669 384.084 97.2652 383.283 96.2797 383.283H51.0047C50.3664 383.283 49.8491 382.765 49.8491 382.127C49.8491 381.489 50.3664 380.972 51.0047 380.972H96.2797C98.5399 380.972 100.378 382.81 100.378 385.07V388.268C100.378 390.527 98.5399 392.366 96.2797 392.366Z" fill="#91B3FA"/>
<path d="M136.418 533.041C134.347 533.041 132.254 532.818 130.166 532.363C121.029 530.372 113.59 524.347 109.758 515.833L73.8518 436.064C73.5895 435.482 73.8492 434.798 74.4311 434.536C75.013 434.273 75.6975 434.534 75.9592 435.116L111.865 514.884C115.394 522.723 122.244 528.271 130.658 530.104C138.928 531.907 147.295 529.767 153.617 524.234C153.957 523.937 154.297 523.633 154.639 523.32C155.11 522.89 155.841 522.922 156.272 523.394C156.702 523.865 156.669 524.596 156.198 525.027C155.843 525.351 155.491 525.666 155.139 525.973C149.858 530.595 143.265 533.041 136.418 533.041Z" fill="#91B3FA"/>
<path d="M69.5973 424.951C69.1565 424.951 68.7356 424.697 68.543 424.27L64.5373 415.371C64.2751 414.789 64.5347 414.106 65.1166 413.843C65.6983 413.581 66.383 413.841 66.6447 414.422L70.6504 423.321C70.9126 423.903 70.653 424.587 70.071 424.849C69.917 424.919 69.7558 424.951 69.5973 424.951Z" fill="#91B3FA"/>
<path d="M414.175 334.098C413.574 334.098 413.067 333.634 413.024 333.025C412.225 321.769 408.324 313.377 401.428 308.083C389.503 298.927 372.487 302.073 372.316 302.107C371.686 302.227 371.084 301.818 370.963 301.192C370.842 300.565 371.252 299.958 371.879 299.838C372.616 299.696 390.095 296.468 402.836 306.249C410.278 311.963 414.482 320.917 415.329 332.861C415.374 333.497 414.895 334.05 414.258 334.095C414.23 334.098 414.203 334.098 414.175 334.098Z" fill="#BDD0FB"/>
<path d="M269.254 119.17H283.834C289.776 119.17 294.101 120.323 296.812 122.629C299.522 124.935 300.877 128.603 300.877 133.633C300.877 136.943 300.16 139.711 298.727 141.939C297.294 144.167 295.34 145.516 292.864 145.985V146.376C296.095 147.184 298.427 148.696 299.861 150.91C301.294 153.125 302.011 156.07 302.011 159.744C302.011 164.93 300.623 168.989 297.848 171.921C295.073 174.852 291.275 176.318 286.454 176.318H269.254V119.17H269.254ZM279.261 142.154H284.147C286.388 142.154 287.964 141.555 288.876 140.356C289.788 139.158 290.245 137.373 290.245 135.001C290.245 132.63 289.723 130.929 288.681 129.9C287.639 128.871 285.997 128.356 283.756 128.356H279.261V142.154ZM279.261 151.027V167.015H284.616C286.831 167.015 288.479 166.337 289.561 164.982C290.642 163.627 291.183 161.529 291.183 158.689C291.183 153.582 288.941 151.027 284.46 151.027L279.261 151.027Z" fill="url(#paint10_linear_230_1009)"/>
<path d="M309.828 176.318V119.17H320.46V167.015H335.197V176.318H309.828Z" fill="url(#paint11_linear_230_1009)"/>
<path d="M381.322 147.666C381.322 157.125 379.55 164.396 376.007 169.478C372.462 174.559 367.393 177.1 360.801 177.1C354.182 177.1 349.1 174.566 345.556 169.497C342.012 164.429 340.24 157.125 340.24 147.587C340.24 138.128 342.012 130.877 345.556 125.835C349.1 120.792 354.208 118.271 360.879 118.271C367.472 118.271 372.527 120.806 376.046 125.874C379.564 130.942 381.322 138.206 381.322 147.666ZM351.107 147.666C351.107 154.181 351.927 159.145 353.569 162.559C355.211 165.973 357.621 167.68 360.801 167.68C367.211 167.68 370.416 161.008 370.416 147.666C370.416 134.323 367.237 127.652 360.879 127.652C357.647 127.652 355.211 129.352 353.569 132.753C351.927 136.154 351.107 141.125 351.107 147.666Z" fill="url(#paint12_linear_230_1009)"/>
<path d="M406.926 144.617H424.398V173.934C419.447 176.044 414.183 177.1 408.606 177.1C401.961 177.1 396.846 174.572 393.264 169.516C389.68 164.461 387.889 157.178 387.889 147.666C387.889 138.493 389.941 131.314 394.046 126.128C398.15 120.942 403.889 118.349 411.264 118.349C415.824 118.349 420.177 119.521 424.32 121.867L420.959 130.545C417.727 128.668 414.704 127.73 411.89 127.73C407.85 127.73 404.652 129.535 402.294 133.144C399.935 136.753 398.756 141.672 398.756 147.9C398.756 154.311 399.609 159.223 401.316 162.637C403.023 166.051 405.505 167.757 408.762 167.757C410.483 167.757 412.228 167.536 414.001 167.093V153.998H406.926V144.617Z" fill="url(#paint13_linear_230_1009)"/>
<path d="M527.445 265.676L459.655 269.525C453.98 269.847 449.097 265.554 448.689 259.885L443.035 181.244C442.602 175.22 447.371 170.095 453.41 170.095H526.855C532.6 170.095 537.258 174.752 537.258 180.498V255.291C537.258 260.807 532.952 265.364 527.445 265.676Z" fill="#7D97F4"/>
<path d="M490.132 260.147C486.708 260.147 483.605 258.398 481.831 255.468C471.835 238.954 459.919 217.203 459.919 207.367C459.919 191.995 473.473 179.489 490.132 179.489C506.792 179.489 520.345 191.995 520.345 207.367C520.345 217.204 508.429 238.954 498.433 255.469C496.66 258.399 493.556 260.147 490.132 260.147ZM490.132 183.355C475.605 183.355 463.786 194.127 463.786 207.367C463.786 214.244 471.569 231.047 485.139 253.466C486.206 255.229 488.073 256.281 490.132 256.281C492.192 256.281 494.059 255.229 495.126 253.466C508.696 231.047 516.479 214.245 516.479 207.366C516.479 194.127 504.66 183.355 490.132 183.355Z" fill="white"/>
<path d="M487.792 226.831C477.462 226.831 469.059 218.428 469.059 208.099C469.059 207.031 469.925 206.166 470.992 206.166C472.06 206.166 472.926 207.031 472.926 208.099C472.926 216.296 479.594 222.965 487.791 222.965C495.989 222.965 502.657 216.296 502.657 208.099C502.657 199.902 495.989 193.233 487.791 193.233C483.051 193.233 478.705 195.415 475.867 199.22C475.229 200.076 474.017 200.253 473.161 199.614C472.305 198.976 472.129 197.765 472.768 196.909C476.29 192.186 481.907 189.367 487.791 189.367C498.12 189.367 506.524 197.77 506.524 208.099C506.524 218.428 498.121 226.831 487.792 226.831Z" fill="white"/>
<path d="M685.803 316.608L603.122 315.247C597.188 315.15 592.538 310.114 592.912 304.191L598.35 218.032C598.663 213.073 602.44 209.028 607.366 208.376L700.462 196.044C707.361 195.13 713.193 201.116 712.102 207.988L696.247 307.839C695.435 312.955 690.982 316.694 685.803 316.608Z" fill="#7D97F4"/>
<g opacity="0.9">
<path d="M648.078 293.611C630.148 293.611 615.561 279.024 615.561 261.094C615.561 243.164 630.148 228.576 648.078 228.576C666.008 228.576 680.595 243.164 680.595 261.094C680.595 279.024 666.008 293.611 648.078 293.611ZM648.078 234.025C633.152 234.025 621.01 246.168 621.01 261.093C621.01 276.019 633.153 288.162 648.078 288.162C663.004 288.162 675.146 276.019 675.146 261.093C675.146 246.168 663.004 234.025 648.078 234.025Z" fill="white"/>
<path fill-rule="evenodd" clip-rule="evenodd" d="M637.892 273.616V250.239C637.892 247.741 640.611 246.192 642.759 247.467L662.458 259.156C664.562 260.404 664.562 263.45 662.458 264.699L642.759 276.388C640.611 277.662 637.892 276.114 637.892 273.616Z" fill="white"/>
</g>
<path d="M489.706 440.619L440.046 445.851C433.903 446.498 428.553 441.682 428.553 435.505V378.185C428.553 373.012 432.354 368.626 437.473 367.888L487.134 360.738C493.404 359.835 499.019 364.699 499.019 371.034V430.274C499.019 435.597 495 440.062 489.706 440.619Z" fill="#7D97F4"/>
<path d="M459.784 421.608C454.199 421.608 448.393 419.193 446.674 415.597C444.706 411.482 448.626 408.552 449.874 407.751C453.66 405.323 457.028 404.489 459.881 405.274C462.851 406.09 464.055 408.346 464.182 408.601L460.328 410.531L460.351 410.577C460.332 410.541 459.844 409.703 458.657 409.41C457.543 409.134 455.519 409.253 452.201 411.381C450.797 412.281 450.246 413.073 450.564 413.737C451.674 416.06 458.516 418.421 463.563 416.739C465.242 416.179 466.702 411.284 465.288 399.332C464.254 390.597 462.172 382.096 462.152 382.011C461.958 381.225 462.222 380.396 462.834 379.866C463.447 379.335 464.306 379.193 465.056 379.498C465.568 379.706 477.632 384.699 480.911 394.128C482.4 398.408 481.864 402.857 479.317 407.351C478.73 408.387 477.414 408.75 476.379 408.164C475.343 407.577 474.979 406.261 475.566 405.225C477.499 401.815 477.916 398.652 476.843 395.555C475.253 390.967 470.713 387.529 467.353 385.521C468.058 388.902 468.972 393.784 469.569 398.825C471.158 412.251 469.683 419.243 464.926 420.828C463.328 421.361 461.567 421.608 459.784 421.608Z" fill="white"/>
<path d="M648.307 183.182H573.186C567.441 183.182 562.784 178.525 562.784 172.78V97.4568C562.784 92.0369 566.945 87.5254 572.347 87.0882L652.384 80.6104C658.689 80.1001 663.986 85.2886 663.607 91.6031L658.691 173.403C658.361 178.896 653.81 183.182 648.307 183.182Z" fill="#7D97F4"/>
<path d="M630.59 113.771C625.105 108.381 616.552 110.002 610.663 114.946C609.819 115.655 608.595 115.663 607.739 114.969C601.772 110.129 593.227 108.656 587.837 114.139C581.985 120.093 582.067 129.664 588.021 135.516L607.943 155.097C608.848 155.987 610.303 155.974 611.193 155.069L630.774 135.148C636.626 129.194 636.544 119.624 630.59 113.771Z" fill="white"/>
<path d="M586.771 327.342C592.676 306.754 580.773 285.278 560.186 279.372C539.598 273.467 518.121 285.37 512.216 305.957C506.311 326.545 518.213 348.022 538.801 353.927C559.389 359.832 580.866 347.93 586.771 327.342Z" fill="#7D97F4"/>
<path d="M540.098 303.725C540.098 302.725 539.288 301.915 538.288 301.915H531.721C530.721 301.915 529.911 302.725 529.911 303.725V332.365C529.911 333.365 530.721 334.175 531.721 334.175H538.288C539.288 334.175 540.098 333.365 540.098 332.365V303.725Z" fill="white"/>
<path d="M562.332 301.915H555.946V294.191C555.946 291.681 554.467 290.029 551.957 290.029H551.796C549.286 290.029 547.251 291.872 547.251 294.382L545.008 302.127C544.008 302.127 542.362 302.841 542.362 303.841V333.53C542.362 334.529 544.843 335.873 545.843 335.873H547.251H562.332C566.087 335.873 568.963 332.296 568.963 328.541V308.83C568.963 305.075 566.087 301.915 562.332 301.915Z" fill="white"/>
<path d="M634.47 704.169C634.47 704.169 635.786 711.222 636.464 718.21C636.729 720.941 634.645 723.334 631.904 723.475C622.595 723.952 602.679 724.896 595.527 724.645C594.452 724.608 593.739 723.514 594.127 722.511C594.452 721.67 595.089 720.987 595.904 720.602L628.668 705.164L634.47 704.169Z" fill="url(#paint14_linear_230_1009)"/>
<path d="M635.453 700.008L634.531 708.468C634.531 708.468 628.792 711.207 624.827 708.223L627.124 698.782L635.453 700.008Z" fill="url(#paint15_linear_230_1009)"/>
<path d="M633.184 541.134C633.638 543.337 636.56 651.242 625.485 699.717C625.304 700.508 625.712 701.317 626.466 701.617C628.242 702.323 631.721 703.337 635.88 703.437C637.167 703.468 638.314 702.62 638.665 701.381C641.855 690.128 657.121 633.756 658.67 580.029C660.401 519.995 658.65 577.986 658.65 577.986L656.946 540.903L633.184 541.134Z" fill="url(#paint16_linear_230_1009)"/>
<path d="M672.361 707.494C672.361 707.494 674.382 711.042 676.396 720.501C676.759 722.209 675.579 723.859 673.842 724.046C670.77 724.378 666.039 724.812 662.246 724.822C660.498 724.827 659.119 723.317 659.313 721.58C659.7 718.116 660.955 712.428 664.955 707.966L672.361 707.494Z" fill="url(#paint17_linear_230_1009)"/>
<path d="M674.002 696.607L671.781 709.41C671.781 709.41 669.481 711.155 664.887 709.95L665.874 696.188L674.002 696.607Z" fill="url(#paint18_linear_230_1009)"/>
<path d="M678.877 544.01C688.855 600.862 678.173 684.766 674.457 701.203C674.229 702.209 673.426 702.986 672.41 703.165C670.684 703.468 667.841 703.729 665.028 702.941C664.058 702.669 663.371 701.804 663.322 700.798C662.676 687.544 662.834 606.136 653.736 574.05C653.275 572.424 652.266 571.012 650.879 570.046L633.7 558.078L632.205 538.482L678.877 544.01Z" fill="url(#paint19_linear_230_1009)"/>
<path d="M617.727 436.691C645.997 435.954 677.271 443.548 677.271 443.548C686.169 492.646 679.755 549.436 679.755 549.436C657.92 555.386 633.139 546.371 633.139 546.371C629.305 525.85 611.777 468.162 611.777 468.162C597.946 466.58 586.527 462.702 577.105 457.522C584.175 449.167 587.445 438.591 588.848 432.344C598.875 435.355 609.007 436.918 617.727 436.691Z" fill="url(#paint20_linear_230_1009)"/>
<path d="M533.81 395.84C536.555 392.459 540.086 394.012 540.086 394.012C544.414 411.549 566.368 425.592 588.848 432.344C587.444 438.591 584.175 449.167 577.105 457.522C539.707 436.962 533.81 395.84 533.81 395.84Z" fill="url(#paint21_linear_230_1009)"/>
<path d="M534.492 396.687C534.21 397.613 537.589 398.988 539.534 395.19C539.586 393.379 540.614 385.609 539.517 384.144C533.679 376.341 522.41 366.597 522.41 366.597C520.539 368.479 522.112 370.295 522.112 370.295L527.587 375.89C526.473 377.95 525.107 379.693 524.482 382.177C524.009 384.059 524.328 386.062 525.293 387.761C526.261 389.466 527.58 391.682 528.824 393.415C531.179 396.694 534.492 396.687 534.492 396.687Z" fill="url(#paint22_linear_230_1009)"/>
<path d="M529.994 379.532L534.974 383.673L536.565 387.827L532.207 392.755C532.207 392.755 530.647 384.496 529.529 382.716C528.411 380.936 528.974 380.065 529.994 379.532Z" fill="url(#paint23_linear_230_1009)"/>
<path d="M666.687 471.03L677.271 443.548C677.271 443.548 703.853 461.241 708.413 483.951C703.426 484.366 694.358 485.751 685.512 490.324C683.457 479.6 666.687 471.03 666.687 471.03Z" fill="url(#paint24_linear_230_1009)"/>
<path d="M643.853 497.013C643.853 497.013 673.665 513.488 683.534 499.083C685.583 496.092 686.051 493.134 685.512 490.324C694.358 485.751 703.426 484.367 708.413 483.952C709.788 490.798 709.165 498.1 705.205 505.511C687.985 537.738 639.998 504.361 639.998 504.361L643.853 497.013Z" fill="url(#paint25_linear_230_1009)"/>
<path d="M646.148 413.463L655.393 439.395C655.546 439.824 655.374 440.303 654.977 440.528C652.537 441.907 643.739 445.91 633.027 439.261C631.911 438.569 631.145 437.429 630.964 436.128L627.836 413.637L646.148 413.463Z" fill="url(#paint26_linear_230_1009)"/>
<path d="M626.343 389.556C626.343 389.556 616.641 408.247 617.979 415.747C619.317 423.247 631.556 422.591 642.189 416.388L649.469 396.236L626.343 389.556Z" fill="url(#paint27_linear_230_1009)"/>
<path d="M641.623 406.531C641.186 406.343 641.021 405.812 641.277 405.412C642.058 404.196 643.518 401.715 643.971 399.55C643.971 399.55 645.735 398.396 639.425 396.949C633.114 395.502 623.702 393.252 621.678 387.912C619.704 382.705 624.634 369.516 632.8 379.909C633.111 380.305 633.712 380.308 634.015 379.906C635.32 378.173 638.763 374.567 643.61 376.687C648.146 378.67 648.686 381.975 648.64 383.644C648.626 384.135 649.069 384.512 649.55 384.416C651.829 383.958 657.306 383.532 659.917 389.129C662.068 393.739 660.724 396.373 659.489 397.667C659.089 398.086 659.272 398.769 659.828 398.933C661.333 399.378 663.283 400.632 663.123 404.15C662.901 409.013 657.462 408.637 655.913 408.43C655.659 408.396 655.404 408.486 655.235 408.677C653.922 410.158 648.004 416.449 641.541 417.262C640.982 417.333 640.542 416.784 640.721 416.248L643.443 408.083C643.569 407.704 643.384 407.291 643.018 407.133L641.623 406.531Z" fill="url(#paint28_linear_230_1009)"/>
<path d="M640.508 407.697C640.508 407.697 647.496 402.804 648.049 406.863C648.602 410.922 641.771 412.811 638.365 411.327L640.508 407.697Z" fill="url(#paint29_linear_230_1009)"/>
<path d="M649.945 523.05L633.705 466.336C633.521 465.692 632.972 465.223 632.307 465.145C629.364 464.802 620.838 463.838 610.994 463.005C599.137 462.002 585.366 461.19 577.138 461.881C575.968 461.98 575.261 463.217 575.781 464.269C580.461 473.736 599.708 512.244 609.347 524.859C609.666 525.277 610.16 525.522 610.686 525.517L648.366 525.166C649.462 525.156 650.247 524.104 649.945 523.05Z" fill="url(#paint30_linear_230_1009)"/>
<path d="M646.022 509.348C646.022 509.348 648.284 500.045 647.371 496.745C646.459 493.445 644.691 489.202 638.798 490.145C632.904 491.087 625.952 493.57 625.952 493.57C625.952 493.57 626.303 497.869 630.782 496.482L628.005 498.631C628.005 498.631 628.402 502.073 632.185 500.234L629.602 503.085C629.602 503.085 631.227 505.911 634.01 504.098C636.794 502.285 638.128 510.468 646.022 509.348Z" fill="url(#paint31_linear_230_1009)"/>
<path d="M612.077 479.936C612.077 482.569 609.942 484.703 607.309 484.703C604.677 484.703 602.542 482.569 602.542 479.936C602.542 477.303 604.676 475.168 607.309 475.168C609.942 475.168 612.077 477.303 612.077 479.936Z" fill="#7D97F4"/>
<path d="M631.872 483.077L633.079 482.72L629.773 471.504C629.235 469.68 627.762 468.309 625.929 467.927C615.448 465.74 587.846 465.292 586.676 465.274L586.657 466.533C586.942 466.538 615.309 466.996 625.672 469.158C627.05 469.446 628.159 470.482 628.565 471.861L631.872 483.077Z" fill="#91B3FA"/>
<defs>
<linearGradient id="paint0_linear_230_1009" x1="754.657" y1="793.018" x2="238.953" y2="236.386" gradientUnits="userSpaceOnUse">
<stop stop-color="#DAE3FE"/>
<stop offset="1" stop-color="#E9EFFD"/>
</linearGradient>
<linearGradient id="paint1_linear_230_1009" x1="380.589" y1="542.531" x2="384.113" y2="792.765" gradientUnits="userSpaceOnUse">
<stop stop-color="#09005D"/>
<stop offset="1" stop-color="#1A0F91"/>
</linearGradient>
<linearGradient id="paint2_linear_230_1009" x1="414.638" y1="-38.5865" x2="351.198" y2="493.605" gradientUnits="userSpaceOnUse">
<stop stop-color="#09005D"/>
<stop offset="1" stop-color="#1A0F91"/>
</linearGradient>
<linearGradient id="paint3_linear_230_1009" x1="722.765" y1="575.245" x2="44.3115" y2="203.417" gradientUnits="userSpaceOnUse">
<stop stop-color="#FE7062"/>
<stop offset="1" stop-color="#FF928E"/>
</linearGradient>
<linearGradient id="paint4_linear_230_1009" x1="367.291" y1="540.074" x2="383.151" y2="740.967" gradientUnits="userSpaceOnUse">
<stop stop-color="#09005D"/>
<stop offset="1" stop-color="#1A0F91"/>
</linearGradient>
<linearGradient id="paint5_linear_230_1009" x1="34.3565" y1="311.545" x2="127.754" y2="512.437" gradientUnits="userSpaceOnUse">
<stop stop-color="#09005D"/>
<stop offset="1" stop-color="#1A0F91"/>
</linearGradient>
<linearGradient id="paint6_linear_230_1009" x1="198.424" y1="232.146" x2="377.86" y2="551.725" gradientUnits="userSpaceOnUse">
<stop stop-color="#4042E2"/>
<stop offset="1" stop-color="#4F52FF"/>
</linearGradient>
<linearGradient id="paint7_linear_230_1009" x1="381.74" y1="340.211" x2="501.571" y2="213.332" gradientUnits="userSpaceOnUse">
<stop stop-color="#4042E2"/>
<stop offset="1" stop-color="#4F52FF"/>
</linearGradient>
<linearGradient id="paint8_linear_230_1009" x1="448.593" y1="296.951" x2="302.779" y2="382.107" gradientUnits="userSpaceOnUse">
<stop stop-color="#09005D"/>
<stop offset="1" stop-color="#1A0F91"/>
</linearGradient>
<linearGradient id="paint9_linear_230_1009" x1="207.128" y1="102.696" x2="154.261" y2="204.904" gradientUnits="userSpaceOnUse">
<stop stop-color="#09005D"/>
<stop offset="1" stop-color="#1A0F91"/>
</linearGradient>
<linearGradient id="paint10_linear_230_1009" x1="287.281" y1="126.818" x2="320.763" y2="-146.326" gradientUnits="userSpaceOnUse">
<stop stop-color="#4042E2"/>
<stop offset="1" stop-color="#4F52FF"/>
</linearGradient>
<linearGradient id="paint11_linear_230_1009" x1="324.518" y1="131.382" x2="358" y2="-141.761" gradientUnits="userSpaceOnUse">
<stop stop-color="#4042E2"/>
<stop offset="1" stop-color="#4F52FF"/>
</linearGradient>
<linearGradient id="paint12_linear_230_1009" x1="362.206" y1="136.002" x2="395.688" y2="-137.141" gradientUnits="userSpaceOnUse">
<stop stop-color="#4042E2"/>
<stop offset="1" stop-color="#4F52FF"/>
</linearGradient>
<linearGradient id="paint13_linear_230_1009" x1="408.285" y1="141.65" x2="441.767" y2="-131.493" gradientUnits="userSpaceOnUse">
<stop stop-color="#4042E2"/>
<stop offset="1" stop-color="#4F52FF"/>
</linearGradient>
<linearGradient id="paint14_linear_230_1009" x1="596.286" y1="694.768" x2="718.035" y2="824.698" gradientUnits="userSpaceOnUse">
<stop stop-color="#09005D"/>
<stop offset="1" stop-color="#1A0F91"/>
</linearGradient>
<linearGradient id="paint15_linear_230_1009" x1="635.492" y1="704.13" x2="624.789" y2="704.232" gradientUnits="userSpaceOnUse">
<stop stop-color="#FEBBBA"/>
<stop offset="1" stop-color="#FF928E"/>
</linearGradient>
<linearGradient id="paint16_linear_230_1009" x1="-2981.17" y1="-3857.78" x2="-3078.09" y2="-3977.61" gradientUnits="userSpaceOnUse">
<stop stop-color="#09005D"/>
<stop offset="1" stop-color="#1A0F91"/>
</linearGradient>
<linearGradient id="paint17_linear_230_1009" x1="623.083" y1="669.654" x2="744.838" y2="799.589" gradientUnits="userSpaceOnUse">
<stop stop-color="#09005D"/>
<stop offset="1" stop-color="#1A0F91"/>
</linearGradient>
<linearGradient id="paint18_linear_230_1009" x1="674.065" y1="703.214" x2="664.824" y2="703.301" gradientUnits="userSpaceOnUse">
<stop stop-color="#FEBBBA"/>
<stop offset="1" stop-color="#FF928E"/>
</linearGradient>
<linearGradient id="paint19_linear_230_1009" x1="-2964.06" y1="-3871.63" x2="-3060.98" y2="-3991.46" gradientUnits="userSpaceOnUse">
<stop stop-color="#09005D"/>
<stop offset="1" stop-color="#1A0F91"/>
</linearGradient>
<linearGradient id="paint20_linear_230_1009" x1="546.507" y1="284.85" x2="671.864" y2="542.281" gradientUnits="userSpaceOnUse">
<stop stop-color="#4042E2"/>
<stop offset="1" stop-color="#4F52FF"/>
</linearGradient>
<linearGradient id="paint21_linear_230_1009" x1="588.781" y1="425.293" x2="534.094" y2="425.812" gradientUnits="userSpaceOnUse">
<stop stop-color="#FEBBBA"/>
<stop offset="1" stop-color="#FF928E"/>
</linearGradient>
<linearGradient id="paint22_linear_230_1009" x1="544.751" y1="411.177" x2="524.486" y2="369.765" gradientUnits="userSpaceOnUse">
<stop stop-color="#FEBBBA"/>
<stop offset="1" stop-color="#FF928E"/>
</linearGradient>
<linearGradient id="paint23_linear_230_1009" x1="534.005" y1="388.839" x2="518.47" y2="365.442" gradientUnits="userSpaceOnUse">
<stop stop-color="#FEBBBA"/>
<stop offset="1" stop-color="#FF928E"/>
</linearGradient>
<linearGradient id="paint24_linear_230_1009" x1="585.261" y1="265.978" x2="710.618" y2="523.408" gradientUnits="userSpaceOnUse">
<stop stop-color="#4042E2"/>
<stop offset="1" stop-color="#4F52FF"/>
</linearGradient>
<linearGradient id="paint25_linear_230_1009" x1="709.183" y1="501.611" x2="639.978" y2="502.269" gradientUnits="userSpaceOnUse">
<stop stop-color="#FEBBBA"/>
<stop offset="1" stop-color="#FF928E"/>
</linearGradient>
<linearGradient id="paint26_linear_230_1009" x1="659.365" y1="465.979" x2="632.931" y2="413.993" gradientUnits="userSpaceOnUse">
<stop stop-color="#FEBBBA"/>
<stop offset="1" stop-color="#FF928E"/>
</linearGradient>
<linearGradient id="paint27_linear_230_1009" x1="1155.53" y1="-2562.03" x2="1163.92" y2="-2609.73" gradientUnits="userSpaceOnUse">
<stop stop-color="#FEBBBA"/>
<stop offset="1" stop-color="#FF928E"/>
</linearGradient>
<linearGradient id="paint28_linear_230_1009" x1="666.953" y1="372.921" x2="628.38" y2="403.986" gradientUnits="userSpaceOnUse">
<stop stop-color="#09005D"/>
<stop offset="1" stop-color="#1A0F91"/>
</linearGradient>
<linearGradient id="paint29_linear_230_1009" x1="1165.64" y1="-2560.25" x2="1174.03" y2="-2607.95" gradientUnits="userSpaceOnUse">
<stop stop-color="#FEBBBA"/>
<stop offset="1" stop-color="#FF928E"/>
</linearGradient>
<linearGradient id="paint30_linear_230_1009" x1="621.421" y1="457.638" x2="583.234" y2="616.752" gradientUnits="userSpaceOnUse">
<stop stop-color="#09005D"/>
<stop offset="1" stop-color="#1A0F91"/>
</linearGradient>
<linearGradient id="paint31_linear_230_1009" x1="647.588" y1="499.732" x2="625.952" y2="499.732" gradientUnits="userSpaceOnUse">
<stop stop-color="#FEBBBA"/>
<stop offset="1" stop-color="#FF928E"/>
</linearGradient>
</defs>
</svg>
