<svg width="170" height="212" viewBox="0 0 170 212" fill="none" xmlns="http://www.w3.org/2000/svg">
<path d="M86.9648 21.5138C86.5408 21.5229 86.3314 21.4123 86.2126 20.9881C85.984 20.1699 85.693 19.3688 85.4281 18.5607C85.258 18.042 85.0888 17.5223 84.8824 16.8921C84.7565 17.2288 84.6679 17.4399 84.5974 17.658C84.2359 18.7687 83.8664 19.8774 83.526 20.9951C83.4092 21.3791 83.2219 21.5178 82.807 21.5078C81.5796 21.4776 80.3521 21.4947 79.1236 21.5017C78.9403 21.5017 78.7379 21.4465 78.5718 21.5852C78.5889 21.6274 78.5919 21.6706 78.6141 21.6857C79.7499 22.4938 80.8787 23.31 82.0297 24.0971C82.3338 24.3051 82.3922 24.4871 82.2713 24.8359C81.8001 26.2029 81.3651 27.583 80.8767 29.0786C82.1565 28.1458 83.3367 27.2955 84.5038 26.428C84.7716 26.229 84.9388 26.227 85.2328 26.432C86.3656 27.2241 87.4179 28.1308 88.6182 28.8263C88.6514 28.7952 88.6847 28.764 88.7179 28.7339C88.307 27.4342 87.9083 26.1295 87.4753 24.8359C87.3585 24.4851 87.431 24.2911 87.727 24.085C88.6746 23.4266 89.604 22.7421 90.5395 22.0656C90.7459 21.9159 90.9704 21.7812 91.1326 21.5017C89.6997 21.5017 88.3312 21.4837 86.9648 21.5128V21.5138Z" fill="white"/>
<path d="M87.1409 145.489C86.6616 145.499 86.425 145.374 86.2911 144.895C86.0323 143.97 85.704 143.065 85.4039 142.15C85.2116 141.563 85.0203 140.976 84.7867 140.263C84.6437 140.644 84.544 140.883 84.4644 141.129C84.0556 142.385 83.6377 143.638 83.2531 144.902C83.1212 145.336 82.9097 145.493 82.4405 145.482C81.0529 145.448 79.6643 145.467 78.2757 145.475C78.0683 145.476 77.8407 145.412 77.6514 145.569C77.6705 145.617 77.6735 145.666 77.6987 145.683C78.9826 146.597 80.2594 147.52 81.5604 148.41C81.9048 148.645 81.9702 148.851 81.8343 149.245C81.3016 150.791 80.8092 152.351 80.2574 154.043C81.7044 152.988 83.0386 152.028 84.3577 151.046C84.6608 150.82 84.8491 150.817 85.1814 151.051C86.4622 151.946 87.6525 152.97 89.0088 153.758C89.0461 153.723 89.0844 153.688 89.1216 153.654C88.6564 152.184 88.2063 150.709 87.7169 149.247C87.584 148.851 87.6666 148.631 88.0019 148.398C89.0733 147.653 90.1246 146.88 91.1819 146.115C91.4155 145.946 91.6692 145.794 91.8525 145.477C90.2323 145.477 88.6856 145.457 87.1399 145.489H87.1409Z" fill="white"/>
<path d="M96.1384 23.8816C95.9108 23.8866 95.7991 23.8273 95.7346 23.5992C95.6118 23.1599 95.4557 22.7307 95.3137 22.2965C95.2221 22.018 95.1314 21.7396 95.0207 21.4009C94.9532 21.5818 94.9059 21.6954 94.8676 21.812C94.6733 22.408 94.4749 23.0031 94.2926 23.6032C94.2302 23.8092 94.1295 23.8836 93.907 23.8786C93.2484 23.8625 92.5899 23.8716 91.9303 23.8756C91.8316 23.8756 91.7239 23.8454 91.6343 23.9208C91.6433 23.9439 91.6454 23.966 91.6564 23.9751C92.2656 24.4083 92.8718 24.8466 93.4891 25.2687C93.6522 25.3803 93.6834 25.4778 93.619 25.6648C93.3663 26.3985 93.1326 27.1383 92.8708 27.9414C93.5576 27.4409 94.1909 26.9845 94.8163 26.5191C94.9603 26.4126 95.0499 26.4106 95.207 26.5211C95.8142 26.9463 96.3791 27.4328 97.0235 27.8057C97.0416 27.7887 97.0588 27.7726 97.0769 27.7555C96.8564 27.0579 96.6419 26.3583 96.4103 25.6648C96.3479 25.4768 96.3861 25.3722 96.5452 25.2617C97.0537 24.9079 97.5522 24.541 98.0546 24.1781C98.1654 24.0977 98.2862 24.0253 98.3728 23.8756C97.6035 23.8756 96.8705 23.8655 96.1364 23.8816H96.1384Z" fill="white"/>
<path d="M75.8332 23.8816C75.6057 23.8866 75.4939 23.8273 75.4294 23.5992C75.3066 23.1599 75.1505 22.7307 75.0085 22.2965C74.9169 22.018 74.8263 21.7396 74.7155 21.4009C74.648 21.5818 74.6007 21.6954 74.5625 21.812C74.3681 22.408 74.1697 23.0031 73.9875 23.6032C73.925 23.8092 73.8243 23.8836 73.6018 23.8786C72.9433 23.8625 72.2847 23.8716 71.6252 23.8756C71.5265 23.8756 71.4187 23.8454 71.3291 23.9208C71.3382 23.9439 71.3402 23.966 71.3513 23.9751C71.9605 24.4083 72.5667 24.8466 73.1839 25.2687C73.347 25.3803 73.3783 25.4778 73.3138 25.6648C73.0611 26.3985 72.8275 27.1383 72.5656 27.9414C73.2524 27.4409 73.8858 26.9845 74.5111 26.5191C74.6551 26.4126 74.7447 26.4106 74.9018 26.5211C75.509 26.9463 76.0739 27.4328 76.7183 27.8057C76.7365 27.7887 76.7536 27.7726 76.7717 27.7555C76.5512 27.0579 76.3367 26.3583 76.1051 25.6648C76.0427 25.4768 76.0809 25.3722 76.24 25.2617C76.7485 24.9079 77.247 24.541 77.7495 24.1781C77.8602 24.0977 77.9811 24.0253 78.0677 23.8756C77.2984 23.8756 76.5653 23.8655 75.8312 23.8816H75.8332Z" fill="white"/>
<path d="M140.67 67.3105C142.071 56.0306 142.53 42.6841 141.144 27.3072C141.144 27.3072 116.092 27.3736 84.9561 12.7244C53.822 27.3736 28.7699 27.3072 28.7699 27.3072C27.3843 42.6821 27.8415 56.0266 29.2421 67.3065C32.9437 97.1064 43.2197 112.491 43.4382 112.818C10.262 74.3496 23.6787 23.6123 23.6787 23.6123C65.1251 24.4043 84.9551 0.751953 84.9551 0.751953C84.9551 0.751953 104.786 24.4043 146.234 23.6123C146.234 23.6123 159.65 74.3496 126.473 112.818C126.691 112.491 136.967 97.1064 140.669 67.3105H140.67Z" fill="url(#paint0_linear_230_1180)"/>
<path fill-rule="evenodd" clip-rule="evenodd" d="M18.5695 100.331C15.4308 95.2499 17.2916 89.2752 21.1342 84.4394C24.5659 89.821 25.1731 97.0923 18.5695 100.331ZM78.5801 161.923C49.2394 149.382 23.3294 125.899 15.2797 95.7575C26.3573 124.501 50.192 145.708 78.5942 157.894L78.5801 161.923ZM67.3999 158.284C60.8859 154.404 53.3297 156.872 47.2557 161.828C54.1584 166.071 63.4073 166.706 67.3999 158.284ZM54.0869 150.485C48.6523 145.386 40.8736 146.163 33.993 149.642C39.7236 155.172 48.4711 157.732 54.0869 150.485ZM42.091 140.517C37.7681 134.599 30.1072 133.935 22.8209 136.046C27.3512 142.434 35.3404 146.5 42.091 140.517ZM31.0578 129.098C28.2494 122.598 21.1694 120.34 13.8509 120.776C16.7539 127.763 23.415 133.297 31.0578 129.098ZM21.7313 115.122C19.518 108.695 12.9074 106.017 5.86973 105.901C8.13639 112.801 14.1076 118.585 21.7313 115.122ZM15.7953 102.119C14.8055 95.9625 9.25109 92.5048 2.90625 91.2966C3.86991 97.8894 8.35792 104.054 15.7953 102.119ZM14.2829 92.6073C17.2071 87.4257 15.1176 81.5526 11.1019 76.8896C7.89875 82.3818 7.58055 89.6431 14.2829 92.6073ZM69.3141 151.822C63.072 148.115 61.7106 140.641 63.1213 133.278C69.8458 137.145 74.5966 144.628 69.3141 151.822ZM55.9065 143.728C50.2453 139.382 49.7872 131.925 52.0246 124.902C58.1409 129.458 61.9049 137.319 55.9065 143.728ZM44.8481 135.712C39.6381 131.006 39.776 123.659 42.522 116.947C48.1599 121.895 51.2332 129.897 44.8481 135.712ZM34.6133 125.495C29.8917 120.625 30.4969 113.549 33.5752 107.251C38.6945 112.385 41.1445 120.296 34.6133 125.495ZM25.1006 112.825C21.2772 107.556 22.8158 100.913 26.6 95.3464C30.7657 100.919 32.0154 108.771 25.1006 112.825Z" fill="white"/>
<path fill-rule="evenodd" clip-rule="evenodd" d="M148.697 84.4394C152.539 89.2752 154.401 95.2499 151.262 100.331C144.657 97.0923 145.265 89.821 148.697 84.4394ZM91.2368 157.894C119.639 145.708 143.474 124.501 154.551 95.7575C146.502 125.899 120.592 149.383 91.2509 161.923L91.2368 157.894ZM122.574 161.828C116.5 156.873 108.945 154.404 102.43 158.284C106.423 166.705 115.671 166.071 122.574 161.828ZM135.838 149.642C128.957 146.163 121.179 145.386 115.744 150.485C121.36 157.731 130.107 155.172 135.838 149.642ZM147.01 136.047C139.724 133.936 132.063 134.6 127.74 140.518C134.491 146.501 142.481 142.435 147.01 136.047ZM155.98 120.777C148.662 120.341 141.582 122.598 138.773 129.099C146.416 133.298 153.077 127.765 155.98 120.777ZM163.961 105.901C156.923 106.017 150.312 108.695 148.1 115.122C155.724 118.585 161.695 112.801 163.961 105.901ZM166.925 91.2966C160.58 92.5048 155.026 95.9625 154.036 102.119C161.473 104.054 165.961 97.8894 166.925 91.2966ZM158.729 76.8896C154.713 81.5526 152.624 87.4247 155.548 92.6073C162.251 89.6431 161.932 82.3818 158.729 76.8896ZM106.71 133.278C108.121 140.641 106.759 148.115 100.517 151.822C95.2344 144.628 99.9843 137.145 106.71 133.278ZM117.806 124.902C120.044 131.925 119.586 139.382 113.925 143.728C107.926 137.319 111.69 129.458 117.806 124.902ZM127.31 116.947C130.056 123.659 130.194 131.006 124.984 135.711C118.599 129.897 121.672 121.895 127.31 116.947ZM136.257 107.25C139.335 113.548 139.94 120.625 135.219 125.494C128.688 120.295 131.138 112.383 136.257 107.25ZM143.232 95.3454C147.016 100.912 148.555 107.555 144.731 112.824C137.817 108.77 139.066 100.918 143.232 95.3454Z" fill="white"/>
<path d="M123.855 62.6075C123.87 61.9893 123.862 61.3731 123.833 60.76C123.835 60.6253 123.836 60.4916 123.836 60.3569C123.836 59.8483 123.821 59.3397 123.812 58.8311C123.683 57.6641 123.443 56.5182 123.133 55.3864C123.119 55.3341 123.121 55.2779 123.115 55.2236C123.053 55.1663 123.043 55.0939 123.052 55.0155C123.029 54.9984 123.024 54.9763 123.035 54.9502C122.996 54.8346 122.956 54.719 122.917 54.6034C120.899 46.3681 116.348 39.9783 116.348 39.9783C114.995 41.9093 115.25 44.9247 115.375 45.8897C115.399 45.8857 115.423 45.8816 115.448 45.8776C115.464 45.9178 115.461 45.9631 115.42 45.9761C115.408 45.9801 115.398 45.9811 115.387 45.9811C115.346 45.9811 115.316 45.948 115.296 45.9037C114.797 45.4404 114.229 45.0715 113.641 44.7317C113.503 44.6523 113.342 44.6131 113.229 44.4915C110.75 43.3667 108.263 42.2601 105.873 40.9524C105.073 40.5141 104.262 40.0929 103.46 39.6587C103.328 39.5873 103.179 39.5431 103.073 39.4265C102.512 39.1682 101.965 38.8837 101.431 38.5741C101.379 38.5792 101.34 38.5611 101.314 38.5148C101.222 38.4988 101.139 38.4656 101.062 38.4193C101.018 38.3932 100.976 38.362 100.933 38.3279C100.931 38.3279 100.93 38.3259 100.928 38.3259C100.252 38.0133 99.5758 37.6946 98.8961 37.3881C98.8377 37.3619 98.7793 37.3348 98.7209 37.3087C97.5035 36.7639 96.2619 36.2874 94.9952 35.8783C83.6075 32.0356 74.0082 33.7584 66.6463 37.1257C55.6382 41.478 50.4544 49.659 50.109 50.1596C50.106 50.1636 50.103 50.1676 50.101 50.1706C50.098 50.1747 50.096 50.1777 50.0939 50.1797L50.0919 50.1817C49.9983 50.3094 49.9046 50.437 49.813 50.5667C48.939 51.803 48.2049 53.1158 47.5584 54.4818C47.0962 55.4578 46.7126 56.4629 46.4336 57.5013C46.2826 58.0631 46.1497 58.6381 46.0772 59.2241C46.0359 59.5548 45.9523 59.8956 45.9342 60.2202C45.8768 61.2746 45.8526 62.3311 46.0017 63.3885C46.1044 64.1142 46.2403 64.8349 46.4518 65.5265C46.8133 66.7025 47.2775 67.8474 47.8353 68.947C48.5613 70.3803 49.3256 71.7956 50.0537 73.228C50.6025 74.3075 51.0888 75.4182 51.6749 76.4807C52.3445 77.6939 53.1299 78.8076 54.1731 79.7283C54.4188 79.9444 54.6424 80.1987 54.9203 80.3616C55.5466 80.7315 56.1921 81.0652 56.9141 81.2351C58.4316 81.5929 59.798 81.2924 61.0164 80.3385C61.3386 80.0862 61.6166 79.7746 61.8018 79.3825C61.5612 79.2388 61.3104 79.2157 61.0708 79.1785C60.5743 79.1011 60.1011 78.9503 59.6379 78.7694C57.6431 77.9894 56.0581 76.6917 54.8579 74.9297C53.9375 73.5788 53.3454 72.1072 53.3303 70.4467C53.3293 70.2778 53.2689 70.1542 53.1551 70.0446C52.8953 69.7953 52.6284 69.5531 52.3777 69.2958C51.7786 68.6847 51.1261 68.1167 50.7072 67.3518C49.7042 65.5194 49.2209 63.5453 49.1685 61.4716C49.1363 60.1951 49.3297 58.9336 49.675 57.7033C49.9369 56.7695 50.3064 55.8749 50.7817 55.0276C50.9549 54.719 51.1623 54.4365 51.4131 54.1822C51.5299 54.3119 51.554 54.4345 51.5842 54.5541C51.7625 55.2497 51.9437 55.9453 52.1219 56.6409C52.5167 58.1808 52.9869 59.6975 53.4753 61.2083C53.6112 61.6284 53.7864 62.0385 54.0845 62.3783C54.5799 62.9422 55.2959 62.9261 55.7641 62.3451C56.1196 61.9029 56.2122 61.4003 56.0833 60.8615C55.9846 60.4454 55.8618 60.0343 55.7339 59.6262C55.2757 58.1627 54.8387 56.6971 54.5739 55.1804C54.2134 53.1158 54.4752 51.1627 55.454 49.3102C56.2273 47.8457 57.3027 46.6234 58.5705 45.5731C59.5936 44.7267 60.6388 43.9055 61.9096 43.4361C63.2982 42.9235 64.6878 43.4321 65.2376 44.8735C65.6162 45.8656 65.6081 46.8747 65.3181 47.8839C65.0875 48.685 64.7029 49.4218 64.3182 50.1566C63.9406 50.8793 63.568 51.605 63.3183 52.384C63.1109 53.0354 63.0777 53.6827 63.3576 54.327C63.6738 55.0537 64.4441 55.0829 64.9707 54.6144C65.0825 54.5149 65.1762 54.3883 65.2587 54.2616C65.4682 53.936 65.6756 53.6093 65.8679 53.2736C66.6826 51.8553 67.4217 50.4028 67.8295 48.8087C68.1608 47.51 68.2977 46.2023 68.0238 44.8674C67.7892 43.7236 67.3653 42.6752 66.6 41.7806C66.4862 41.6479 66.3624 41.5243 66.2264 41.3785C67.5002 40.889 68.7629 40.496 70.0871 40.3523C71.1746 40.2337 72.2097 40.4387 73.1664 40.9855C74.1884 41.5695 74.8168 42.4752 75.2437 43.5426C75.723 44.7408 75.8721 46.0002 75.9184 47.2768C75.9375 47.7884 75.9375 48.3031 76.0714 48.8006C76.2628 49.5163 76.6817 50.0058 77.4298 50.2249C77.9273 50.3707 78.6774 49.9807 78.754 49.3535C78.7983 48.9946 78.8255 48.6388 78.8013 48.2789C78.7399 47.3964 78.7056 46.5139 78.5707 45.6364C78.3975 44.5126 78.1599 43.4079 77.7249 42.3535C77.022 40.6528 75.9234 39.2888 74.3002 38.3751C74.1743 38.3038 74.0041 38.2857 73.9246 38.0967C80.2312 36.0401 86.3948 36.3708 92.4808 39.0526C92.0488 39.7411 91.5735 40.3332 91.1426 40.9564C91.055 41.083 90.9523 41.086 90.8193 41.0679C90.4619 41.0197 90.1145 40.9242 89.761 40.8579C87.7038 40.4679 85.6285 40.2276 83.539 40.104C83.0899 40.0779 82.6559 40.1613 82.229 40.2829C81.8937 40.3784 81.648 40.5995 81.4597 40.884C80.9783 41.6087 81.2502 42.3234 82.086 42.5636C82.7325 42.7486 83.394 42.7868 84.0606 42.7968C84.7111 42.8069 85.3647 42.7837 86.0131 42.8249C86.8288 42.8762 87.6404 42.9868 88.4047 43.3024C89.7359 43.8512 90.6492 44.7398 90.8183 46.2495C90.8626 46.6446 90.9724 47.0346 91.0801 47.4195C91.2564 48.0488 91.634 48.3694 92.1737 48.3885C92.4647 48.3986 92.7195 48.3161 92.935 48.1181C93.4294 47.6648 93.6207 47.0979 93.5784 46.4385C93.5371 45.8002 93.3398 45.1911 93.2381 44.5639C93.1444 43.9859 93.1746 43.418 93.4022 42.8933C94.0456 41.4087 95.2127 40.5473 96.7856 40.2538C98.0211 40.0226 99.1751 40.3322 100.267 40.9121C102.179 41.9294 103.412 43.5698 104.434 45.4142C104.389 45.4494 104.36 45.4786 104.326 45.4977C101.704 47.0145 100.227 49.3414 99.5668 52.2352C99.46 52.7037 99.3805 53.1851 99.5074 53.6716C99.6494 54.2174 100.006 54.5411 100.546 54.5903C101.289 54.6587 101.685 54.4546 101.932 53.8747C102.057 53.5801 102.105 53.2645 102.173 52.9539C102.335 52.2111 102.508 51.4733 102.851 50.7858C103.381 49.7274 104.09 48.8247 105.074 48.1513C105.346 47.9653 105.37 47.9704 105.574 48.2327C106.015 48.8006 106.462 49.3635 106.832 49.9837C107.112 50.4531 107.472 50.8542 107.936 51.1487C108.797 51.6955 109.955 51.3165 110.33 50.3858C110.448 50.0943 110.432 49.8651 110.197 49.6379C109.889 49.3394 109.626 48.9986 109.389 48.6408C108.975 48.0186 108.551 47.4045 108.141 46.7803C107.839 46.3209 107.477 45.8977 107.248 45.3921C107.231 45.3781 107.198 45.3549 107.2 45.3519C107.222 45.3137 107.255 45.3127 107.29 45.3358C107.852 45.5268 108.415 45.7108 108.965 45.9399C110.572 46.6084 112.053 47.4889 113.424 48.5574C114.212 49.1715 114.927 49.8641 115.605 50.5948C115.678 50.6742 115.752 50.7536 115.808 50.8461C115.814 50.9155 116.347 57.0067 116.416 58.818C116.422 58.9738 116.425 59.0985 116.423 59.1839C116.423 59.1839 116.464 59.3789 116.535 59.5588C116.689 59.9498 116.985 60.2725 117.315 58.3768L117.248 56.2317L117.194 54.4958L116.97 47.3713C116.97 47.3713 121.167 54.6989 122.639 61.4033C122.639 61.4043 122.639 61.4063 122.639 61.4073C122.77 62.1682 122.854 62.9361 122.842 63.7081C122.799 66.3014 122.223 68.7741 121.083 71.1091C120.328 72.655 119.455 74.1366 118.303 75.4182C117.183 76.6626 115.963 77.8105 114.652 78.8609C112.275 80.7656 109.645 82.0955 106.588 82.5136C105.191 82.7046 103.792 82.9096 102.409 83.2032C101.445 83.4082 100.501 83.6625 99.6373 84.1591C98.8559 84.6084 98.1117 85.1119 97.3646 85.6135C96.2045 86.3915 94.96 86.9624 93.5794 87.2449C91.777 87.6128 89.9997 87.5022 88.2315 87.0569C86.9365 86.7313 85.712 86.2257 84.5369 85.5954C84.0053 85.311 83.239 85.0275 82.7063 85.4648C82.3226 85.7804 82.2884 86.2407 82.4918 86.6659C82.658 87.0127 82.9399 87.2238 83.2813 87.3625C83.5713 87.4811 83.8713 87.5786 84.1936 87.6952C84.0324 88.0952 83.829 88.4491 83.5954 88.7908C82.8714 89.8493 81.8635 90.6785 80.791 91.366C80.2543 91.7108 79.6623 91.9731 79.1296 92.3189C78.5929 92.6667 78.0823 93.108 77.605 93.5342C76.5659 94.4599 75.6495 95.5153 74.8268 96.6351C74.3103 97.3367 73.7877 98.0343 73.2691 98.7338C73.1029 98.958 72.8955 99.1419 72.6931 99.3309C72.6176 99.4013 72.528 99.4455 72.4293 99.4043C72.3074 99.354 72.3527 99.2404 72.3648 99.152C72.4232 98.7278 72.4846 98.3036 72.5521 97.8805C72.7898 96.3788 73.0304 94.8781 73.2671 93.3764C73.3637 92.7622 73.4594 92.147 73.546 91.5319C73.5732 91.3369 73.6245 91.2153 73.8591 91.1811C74.13 91.1419 74.3888 91.0263 74.6546 90.9549C76.1933 90.5398 77.5205 89.3256 77.5436 87.3153C77.5567 86.2096 77.1418 85.3291 76.3151 84.6255C75.9446 84.3108 75.5287 84.0606 75.0947 83.8434C73.6406 83.1147 72.0869 82.8373 70.4727 82.8272C70.2754 82.8262 70.1707 82.9227 70.071 83.0654C69.6561 83.6555 69.1879 84.2003 68.6663 84.6998C68.6199 84.7441 68.5515 84.7803 68.5676 84.8747C68.7962 84.8818 69.0177 84.8908 69.2312 84.9009C77.9263 85.323 74.8903 88.5405 74.85 88.5828C74.3193 88.9074 73.7212 89.1054 73.0888 89.208C71.2944 89.5005 69.2271 89.0301 67.6674 88.5154C67.6271 88.5084 67.5878 88.4953 67.5506 88.4762C67.5345 88.4712 67.5193 88.4662 67.5032 88.4601C66.1771 88.0108 65.2567 87.5474 65.2567 87.5474C64.4713 88.4048 62.9065 88.8913 62.8581 88.9064H62.8571C63.267 89.2854 63.6879 89.5578 64.143 89.7789C66.1025 90.7308 68.2705 91.0484 70.3831 91.4826C70.9782 91.6053 71.0981 91.8807 70.94 92.6084C70.8111 93.1994 70.7617 93.8277 70.654 94.4268C70.5009 95.2811 70.3439 96.1345 70.1898 96.9879C70.1153 97.395 70.0166 97.8091 69.9713 98.2132C69.8988 98.8615 69.8001 99.54 70.0549 100.176C70.2603 100.689 70.5956 101.106 71.086 101.399C71.8271 101.839 72.5994 101.919 73.408 101.648C73.8732 101.492 74.2599 101.209 74.5832 100.84C75.3313 99.9863 75.9929 99.0655 76.6615 98.1508C77.4812 97.0311 78.3723 95.9807 79.4478 95.0942C80.3762 94.3282 81.4778 93.7774 82.5019 93.1381C83.5914 92.4586 84.5671 91.6203 85.3052 90.5639C85.3626 90.4815 85.419 90.3981 85.4734 90.3136C85.563 90.1749 85.6476 90.0342 85.7292 89.8905C86.1783 89.0984 86.3998 89.0441 87.2879 89.2642C87.9314 89.4241 88.5768 89.5758 89.2324 89.6794C91.1144 89.9779 92.9772 89.9508 94.829 89.4532C96.0032 89.1386 97.0967 88.6581 98.1137 87.9988C99.4047 87.1605 100.486 86.097 101.399 84.8657C101.7 84.4616 102.065 84.2596 102.554 84.2485C102.914 84.2405 103.274 84.2324 103.634 84.2274C105.604 84.2013 107.561 84.0063 109.489 83.6102C111.662 83.165 113.694 82.3387 115.57 81.1486C116.037 80.8531 116.492 80.5395 116.952 80.2349C116.97 80.1847 117.006 80.1595 117.058 80.1545C117.072 80.0932 117.115 80.0691 117.172 80.062C117.79 79.5293 118.413 79.0066 118.983 78.4216C119.697 77.6889 120.339 76.9169 120.906 76.1017C124.931 71.1594 123.853 62.6105 123.853 62.6105L123.855 62.6075ZM58.4688 41.9103C58.4688 41.9103 58.4688 41.9103 58.4678 41.9103L58.4698 41.9062C58.4698 41.9062 58.4698 41.9082 58.4698 41.9093L58.4688 41.9103ZM60.6569 40.4809C60.6922 40.4568 60.7284 40.4327 60.7647 40.4096C60.7314 40.4387 60.6962 40.4628 60.6569 40.4809ZM60.9681 40.2578C60.9681 40.2578 60.9681 40.2578 60.9681 40.2588C60.9681 40.2588 60.964 40.2688 60.962 40.2729C60.96 40.2759 60.958 40.2799 60.957 40.2829C60.9489 40.295 60.9389 40.304 60.9268 40.3101C60.9228 40.3121 60.9177 40.3141 60.9137 40.3151C60.9117 40.3151 60.9097 40.3151 60.9077 40.3161C60.9036 40.3161 60.9006 40.3171 60.8956 40.3181C60.8895 40.3181 60.8825 40.3181 60.8754 40.3181C60.9077 40.297 60.9399 40.2749 60.9721 40.2538C60.9721 40.2548 60.9721 40.2558 60.9711 40.2568L60.9681 40.2578ZM61.3729 40.0125V40.0145C61.3648 40.0346 61.3517 40.0497 61.3346 40.0568C61.3326 40.0588 61.3296 40.0588 61.3276 40.0598C61.3185 40.0628 61.3064 40.0648 61.2933 40.0638C61.2913 40.0648 61.2903 40.0658 61.2883 40.0668L61.2752 40.0879H61.2561C61.251 40.0899 61.245 40.0939 61.24 40.097C61.2188 40.1331 61.1866 40.1532 61.1453 40.1583C61.1312 40.1673 61.1181 40.1754 61.105 40.1844C61.1101 40.1774 61.1151 40.1703 61.1201 40.1623L61.1262 40.1593C61.1664 40.1352 61.2067 40.11 61.248 40.0859H61.2571C61.2682 40.0789 61.2782 40.0718 61.2893 40.0648L61.2913 40.0618C61.3195 40.0417 61.3477 40.0216 61.3759 40.0005C61.3759 40.0005 61.3789 39.9984 61.3799 39.9984V40.0005C61.385 40.0005 61.39 40.0005 61.395 39.9984C61.389 40.0025 61.3829 40.0055 61.3759 40.0105L61.3729 40.0125ZM61.537 39.908L61.5279 39.9291L61.5118 39.9241C61.5118 39.9241 61.5038 39.9291 61.4997 39.9311C61.5018 39.9281 61.5038 39.9251 61.5058 39.9221L61.5118 39.9241C61.5209 39.918 61.5289 39.913 61.538 39.908C61.5753 39.8849 61.6115 39.8628 61.6478 39.8396C61.6266 39.8869 61.5894 39.909 61.538 39.908H61.537ZM61.8683 39.7311C61.8683 39.7311 61.8612 39.7361 61.8572 39.7371C61.8471 39.7421 61.8361 39.7462 61.825 39.7492C61.82 39.7502 61.8159 39.7512 61.8109 39.7522C61.8049 39.7522 61.7988 39.7542 61.7938 39.7542C61.7938 39.7542 61.7928 39.7542 61.7918 39.7542H61.7897C61.7897 39.7542 61.7928 39.7522 61.7948 39.7522C61.8371 39.7261 61.8794 39.6999 61.9217 39.6738C61.9076 39.6999 61.8904 39.719 61.8693 39.7321L61.8683 39.7311ZM62.2097 39.5079C62.2097 39.5079 62.2076 39.5079 62.2066 39.5079L62.2107 39.5059C62.2107 39.5059 62.2107 39.5069 62.2107 39.5079H62.2097ZM64.3182 38.3982C64.2991 38.4113 64.2769 38.4193 64.2528 38.4234C64.2467 38.4244 64.2407 38.4254 64.2336 38.4254C64.2236 38.4264 64.2135 38.4274 64.2024 38.4274C64.1914 38.4475 64.1772 38.4636 64.1611 38.4746C64.1521 38.4817 64.142 38.4877 64.1309 38.4917C64.1198 38.4967 64.1088 38.4998 64.0977 38.5018C64.0937 38.5028 64.0886 38.5038 64.0846 38.5048C64.0695 38.5078 64.0534 38.5088 64.0363 38.5088C64.0131 38.548 63.9819 38.5711 63.9436 38.5842C63.9295 38.5892 63.9134 38.5922 63.8983 38.5942C63.8903 38.5942 63.8812 38.5963 63.8731 38.5963C63.8641 38.6123 63.854 38.6254 63.8419 38.6365C63.8359 38.6415 63.8299 38.6465 63.8228 38.6505C63.8168 38.6546 63.8097 38.6576 63.8027 38.6616C63.7956 38.6646 63.7886 38.6676 63.7815 38.6696C63.7775 38.6706 63.7735 38.6716 63.7694 38.6726C63.7644 38.6747 63.7604 38.6747 63.7553 38.6757C63.7412 38.6777 63.7251 38.6797 63.71 38.6807C63.708 38.6807 63.706 38.6807 63.705 38.6807C63.7432 38.6184 63.8017 38.5942 63.8721 38.5942C63.9104 38.5349 63.9668 38.5098 64.0353 38.5078C64.0755 38.4495 64.134 38.4264 64.2024 38.4264C64.2417 38.3681 64.2991 38.344 64.3676 38.3419H64.3696C64.3555 38.3661 64.3384 38.3842 64.3192 38.3962L64.3182 38.3982ZM64.6978 38.1872C64.6898 38.1982 64.6807 38.2083 64.6717 38.2163C64.6656 38.2213 64.6596 38.2264 64.6525 38.2304C64.6294 38.2455 64.6032 38.2555 64.574 38.2595C64.569 38.2595 64.5649 38.2615 64.5599 38.2615C64.5518 38.2615 64.5438 38.2625 64.5357 38.2625H64.5337C64.5337 38.2625 64.5337 38.2625 64.5337 38.2615C64.574 38.2022 64.6334 38.1781 64.7039 38.1761C64.7039 38.1761 64.6988 38.1841 64.6958 38.1872H64.6978ZM65.2033 37.9349H65.2023H65.2043H65.2033ZM65.3705 37.8514H65.3675C65.3675 37.8514 65.3675 37.8494 65.3695 37.8494H65.3715C65.3715 37.8494 65.3715 37.8504 65.3705 37.8514ZM66.4379 37.376C66.4379 37.376 66.4328 37.383 66.4298 37.385C66.3916 37.4252 66.3392 37.4343 66.2818 37.4333C66.2415 37.4986 66.1791 37.5137 66.1076 37.5127C66.1519 37.4554 66.2113 37.4323 66.2818 37.4333C66.3231 37.374 66.3815 37.3509 66.453 37.3549C66.4479 37.3629 66.4439 37.37 66.4379 37.377V37.376ZM68.2806 36.608C68.2736 36.6181 68.2665 36.6271 68.2584 36.6352C68.2544 36.6392 68.2494 36.6432 68.2454 36.6462C68.2292 36.6583 68.2121 36.6663 68.194 36.6714C68.188 36.6734 68.1819 36.6744 68.1749 36.6754C68.1527 36.6794 68.1286 36.6804 68.1034 36.6784C68.1497 36.6231 68.2101 36.602 68.2806 36.607V36.608ZM73.688 34.9505H73.686H73.689H73.688ZM79.1578 34.0911C79.2353 34.0188 79.3179 33.9977 79.4095 34.068C79.3289 34.1112 79.2444 34.1143 79.1578 34.0911ZM87.7209 34.2479C87.7199 34.2258 87.7209 34.2027 87.725 34.1806C87.7884 34.1906 87.8458 34.2118 87.8871 34.263C87.8297 34.2801 87.7743 34.2751 87.7209 34.2479ZM88.6725 34.3666C88.7138 34.3776 88.7561 34.3877 88.7974 34.3987C88.749 34.4148 88.7067 34.4068 88.6725 34.3666ZM115.575 43.3245C115.553 43.2893 115.556 43.2582 115.588 43.231C115.615 43.2662 115.608 43.2974 115.575 43.3245ZM117.799 42.7476C117.789 42.7445 117.781 42.7405 117.774 42.7345C117.77 42.7325 117.767 42.7295 117.765 42.7264C117.756 42.7174 117.75 42.7074 117.747 42.6953C117.746 42.6913 117.745 42.6862 117.745 42.6822C117.745 42.6732 117.745 42.6641 117.745 42.6541C117.765 42.6862 117.785 42.7174 117.804 42.7496C117.803 42.7496 117.801 42.7496 117.8 42.7476H117.799ZM118.987 45.1418C119.008 45.181 119.029 45.2202 119.05 45.2605C119.005 45.2343 118.984 45.1951 118.987 45.1418ZM66.7973 88.3053C66.8447 88.3214 66.892 88.3385 66.9383 88.3546C66.8839 88.3596 66.8336 88.3536 66.7973 88.3053Z" fill="url(#paint1_linear_230_1180)"/>
<path d="M65.1344 66.4534C65.1122 68.6939 64.6984 70.8459 63.6753 72.8612C63.3782 73.4462 62.9936 73.9669 62.5394 74.4363C61.314 75.7058 59.5035 75.8928 57.9608 75.3058C57.5439 75.147 57.2499 74.8444 57.0888 74.4132C56.9085 73.9277 56.8129 73.4282 56.7988 72.9145C56.7655 71.6541 56.8763 70.4056 57.1009 69.1633C57.4191 67.4002 57.9225 65.6955 58.6415 64.0571C59.0262 63.1796 59.4883 62.3473 60.2083 61.6869C60.6705 61.2627 61.1992 60.9732 61.8265 60.9129C62.8979 60.8104 63.7146 61.2547 64.2744 62.1523C64.7457 62.9072 64.9158 63.7636 65.0266 64.633C65.1031 65.2371 65.1273 65.8452 65.1334 66.4544L65.1344 66.4534ZM60.1026 70.3765C60.5034 70.3825 60.9071 70.4167 61.2999 70.3071C62.1679 70.0639 62.7479 69.4739 63.2 68.7321C63.2816 68.5994 63.3077 68.4456 63.3047 68.2928C63.2967 67.9179 63.2493 67.549 63.0963 67.2002C62.8788 66.7026 62.5193 66.3679 61.9927 66.2101C61.0914 65.9407 60.3362 66.2071 59.7512 66.8936C59.0906 67.6696 58.713 68.5883 58.6173 69.6075C58.572 70.09 58.7865 70.3363 59.2718 70.3725C59.5467 70.3936 59.8257 70.3765 60.1026 70.3765Z" fill="white"/>
<path d="M81.4925 49.9707C81.432 48.3815 82.871 46.3702 85.1779 46.4667C86.7518 46.5331 88.6519 47.8599 88.6026 50.1285C88.5522 52.4484 86.4457 53.6556 84.9816 53.6013C82.9677 53.528 81.423 51.8976 81.4914 49.9707H81.4925ZM86.8817 49.5204C86.8797 48.4539 86.054 47.6186 85.0078 47.6046C84.1347 47.5925 83.1046 48.28 83.0673 49.4812C83.0402 50.3708 83.8477 51.4191 85.0128 51.387C86.063 51.3578 86.8837 50.5577 86.8827 49.5214L86.8817 49.5204Z" fill="white"/>
<path d="M57.3093 57.2359C57.2519 56.9152 57.1854 56.6187 57.1472 56.3191C57.0001 55.1803 56.9468 54.0364 56.9488 52.8885C56.9488 52.6272 57.0374 52.4533 57.2448 52.2955C57.7835 51.8854 58.3092 51.4572 58.8358 51.031C59.8196 50.2359 60.6292 49.27 61.4861 48.3493C61.6543 48.1683 61.8225 47.9884 62.0027 47.7954C62.1336 47.9613 62.1004 48.1372 62.1356 48.292C62.2615 48.8438 62.3854 49.3966 62.5424 49.9404C62.8284 50.9285 62.5837 51.8251 62.042 52.6594C61.6241 53.3027 61.0441 53.8042 60.5164 54.35C59.6313 55.2637 58.6888 56.1191 57.7453 56.9725C57.6335 57.073 57.5227 57.1786 57.3093 57.2359Z" fill="white"/>
<path d="M65.4243 85.3593C65.4243 85.3593 65.4273 85.3593 65.4293 85.3583C65.527 85.3342 65.6227 85.302 65.7183 85.2749C66.4614 85.0688 67.0364 84.5903 67.5963 84.0958C69.6636 82.2735 70.8407 79.9767 71.2153 77.2617C71.2505 77.0084 71.3442 76.8948 71.5879 76.8054C72.5576 76.4496 73.5112 76.0565 74.4194 75.56C74.4255 75.557 74.4315 75.555 74.4386 75.555C74.653 75.5429 74.653 75.7037 74.6772 75.8545C74.9058 77.2849 75.1314 78.7152 75.4123 80.1365C75.6449 81.3145 75.9047 82.4855 76.2682 83.6314C76.3095 83.7611 76.3397 83.8988 76.4545 83.9943C76.5391 84.0646 76.6509 84.1219 76.7395 84.0194C76.7787 83.9742 76.7959 83.9159 76.8089 83.8576C76.9731 83.1329 76.5592 82.3599 76.4052 81.6633C76.2753 81.0743 76.1655 80.4803 76.0507 79.8882C75.8614 78.9112 75.7808 77.9241 75.7184 76.933C75.7184 76.931 75.7184 76.929 75.7184 76.927C75.7849 76.1339 75.6731 75.2936 75.952 74.5307C76.1907 73.8754 76.6921 73.3788 77.1876 72.9074C78.982 71.2006 80.5458 69.2627 82.3512 67.5599C82.4499 67.4665 82.5365 67.3469 82.6725 67.3077C82.6896 67.3026 82.7077 67.3107 82.7178 67.3247C82.7852 67.4142 82.7591 67.5067 82.7631 67.5911C82.7943 68.2254 82.8467 68.8586 82.9363 69.4868C83.0692 70.4206 83.1729 71.3464 83.9372 71.9977C84.4075 72.3978 84.9925 72.64 85.5836 72.8199C86.9238 73.226 88.3567 73.3818 89.7453 73.5175C90.0263 73.5447 90.0494 73.5627 89.9941 73.813C89.8591 74.4262 89.8762 75.0504 89.839 75.6706C89.8339 75.753 89.835 75.8364 89.839 75.9198C89.842 75.9892 89.8521 76.0696 89.9316 76.0857C90.0223 76.1048 90.0978 76.0535 90.127 75.9691C90.1632 75.8656 90.1914 75.758 90.2085 75.6495C90.3032 75.0624 90.3918 74.4754 90.4875 73.8884C90.5136 73.7246 90.5348 73.5617 90.7795 73.5768C91.5609 73.6241 92.3252 73.4884 93.0824 73.3145C93.2898 73.2672 93.3442 73.3296 93.3895 73.5145C93.4791 73.8764 93.5929 74.2322 93.7017 74.589C94.1951 76.2123 95.0611 77.5753 96.4869 78.5433C96.5282 78.5715 96.5745 78.6046 96.5574 78.675C96.5554 78.683 96.5504 78.6901 96.5453 78.6961C96.5242 78.7162 96.5 78.7433 96.4688 78.7594C95.5494 79.2419 94.614 79.6902 93.6251 80.0219C91.5035 80.7335 89.3546 80.8904 87.1575 80.4209C85.4033 80.046 83.8013 79.3052 82.2274 78.481C81.2829 77.9865 80.3867 77.4055 79.4291 76.9341C79.1048 76.7742 78.7715 76.6456 78.414 76.5792C77.8371 76.4717 77.3175 76.6858 77.0657 77.1532C76.812 77.6236 76.9066 78.2609 77.2832 78.6539C77.4876 78.867 77.7353 79.0167 77.9921 79.1555C78.3456 79.3454 78.693 79.5404 79.0182 79.7817C81.1288 81.3477 83.4337 82.5197 85.9793 83.2103C88.0134 83.7621 90.0786 83.8907 92.158 83.5972C94.4498 83.2746 96.5765 82.4755 98.5512 81.2673C99.251 80.8391 99.8864 80.3275 100.531 79.8259C100.704 79.6912 100.878 79.6349 101.103 79.6409C101.69 79.655 102.264 79.5384 102.817 79.3565C103.214 79.2258 103.602 79.076 103.979 78.9072C111.15 75.8726 112.813 67.1056 112.813 67.1056C115.501 55.7936 111.484 51.2241 111.484 51.2241C109.842 53.2947 108.531 58.3889 107.787 61.8718C107.684 62.2497 107.586 62.6286 107.489 63.0086C107.337 63.6107 107.164 64.2098 107.1 64.8299C107.081 65.0219 107.044 65.2149 107.107 65.4049C107.146 65.5195 107.22 65.5989 107.346 65.6029C107.475 65.6069 107.546 65.5325 107.579 65.4099C107.617 65.2632 107.658 65.1164 107.704 64.9727C108.526 62.4075 109.348 59.8423 110.17 57.2772C110.197 57.1948 110.193 57.0892 110.308 57.0601C110.401 57.1827 110.404 57.3254 110.431 57.4591C110.706 58.799 110.956 60.1429 111.189 61.4908C111.48 63.1724 111.607 64.8601 111.486 66.5658C111.369 68.1972 110.991 69.7301 109.934 71.0328C109.917 71.0539 109.906 71.08 109.893 71.1041C109.903 71.1061 109.912 71.1092 109.921 71.1122C109.905 71.1071 109.885 71.1112 109.874 71.1242C109.639 71.3806 109.409 71.6439 109.163 71.8902C108.271 72.7817 107.315 73.6532 106.256 74.3609C105.103 75.1318 103.911 75.6434 102.532 75.8284C102.487 75.8344 102.443 75.8404 102.399 75.8455C101.062 76.0133 99.7505 75.8354 98.4495 75.5097C97.0488 75.1599 95.9079 74.4423 95.0792 73.2532C94.9886 73.1225 94.8385 73.023 94.8053 72.8471C94.8013 72.827 94.8113 72.8059 94.8305 72.7978C94.8808 72.7757 94.9231 72.7566 94.9664 72.7405C98.5864 71.4178 101.021 68.9149 102.367 65.3295C102.543 64.8601 102.66 64.3776 102.647 63.872C102.633 63.2679 102.448 63.0257 101.858 62.8709C101.088 62.6688 100.302 62.6075 99.5098 62.6779C99.0688 62.7171 98.6287 62.7653 98.1897 62.8226C96.9531 62.9855 95.7287 63.1956 94.5465 63.6137C93.6413 63.9333 92.9837 64.5314 92.5044 65.3466C92.2154 65.8391 92.018 66.3688 91.8368 66.9066C91.4179 68.15 90.993 69.3924 90.5821 70.6398C90.4985 70.892 90.3777 71.0127 90.0968 71.0549C88.9941 71.2207 87.8875 71.2147 86.7798 71.1876C85.936 71.1675 85.795 71.0659 85.4053 70.308C85.3993 70.296 85.3953 70.2829 85.3882 70.2699C84.7428 69.0184 84.2856 67.7097 84.1044 66.3055C84.0721 66.0532 84.1084 65.9055 84.3067 65.7416C86.2139 64.1665 88.3366 62.9674 90.6425 62.0818C91.3545 61.8084 92.0915 61.6154 92.8246 61.4114C93.0451 61.3501 93.1801 61.2365 93.2596 61.0194C93.4036 60.6294 93.5315 60.2374 93.6191 59.8303C93.8708 58.6553 93.8074 57.4641 93.8195 56.276C93.8195 56.2459 93.7993 56.2157 93.7852 56.1896C93.7802 56.1806 93.7722 56.1725 93.7621 56.1695C93.6856 56.1434 93.6262 56.1775 93.5688 56.2027C92.6736 56.5866 91.7421 56.8349 90.7775 56.9756C89.992 57.0902 89.2046 57.1576 88.4182 57.054C87.3609 56.9143 86.3136 56.7123 85.2815 56.4449C84.0228 56.1182 82.7732 55.7554 81.4873 55.5393C80.3162 55.3423 79.1511 55.2719 77.9861 55.5845C76.8956 55.877 75.9621 56.4238 75.2784 57.3264C74.1999 58.7477 73.7468 60.3982 73.5877 62.1462C73.5877 62.1492 73.5877 62.1522 73.5857 62.1552C73.5333 62.311 73.5041 62.4698 73.5212 62.6347C73.5212 62.6387 73.5212 62.6427 73.5212 62.6467C73.49 62.7995 73.4719 62.9533 73.4971 63.1081C73.4981 63.1161 73.4971 63.1242 73.494 63.1322C73.4487 63.2317 73.4507 63.3393 73.4457 63.4448C73.3531 65.2179 73.2937 66.991 73.3933 68.7671C73.4306 69.4285 73.4407 70.101 73.2947 70.7503C73.3037 70.7403 73.3138 70.7312 73.3279 70.7232C73.3098 70.7634 73.2906 70.8046 73.2725 70.8458C73.2594 70.9001 73.2443 70.9544 73.2282 71.0086C73.0037 71.7655 72.7167 72.5063 72.4941 73.2652C72.3743 73.6743 72.1367 73.9226 71.746 74.0714C71.3029 74.2412 71.3089 74.2553 71.1186 73.8291C70.741 72.9788 70.1338 72.3646 69.2437 72.0631C68.6264 71.854 68.3102 71.9706 67.9064 72.4862C67.2549 73.3165 67.0777 74.3096 66.9367 75.3127C66.9025 75.557 66.9075 75.8113 66.9327 76.0576C66.9669 76.3953 67.0737 76.722 67.3949 76.8959C67.9507 77.1964 68.5428 77.3743 69.1873 77.2879C69.4753 77.2487 69.7602 77.1914 70.0492 77.1622C70.3282 77.1341 70.3624 77.1733 70.3322 77.4577C70.2899 77.8498 70.2023 78.2277 70.014 78.5755C70.014 78.5755 70.012 78.5775 70.012 78.5795C70.011 78.5815 70.01 78.5835 70.009 78.5855C69.9798 78.6398 69.9475 78.6931 69.9133 78.7454C69.7139 79.0459 69.4944 79.3293 69.2638 79.6058C69.2457 79.6269 69.2286 79.649 69.2094 79.6701C69.1933 79.6902 69.1762 79.7103 69.1591 79.7294C67.6013 81.5819 63.9219 84.9371 58.1591 84.1662C58.1581 84.1662 58.1571 84.1662 58.1561 84.1662C57.6727 84.0697 57.1954 83.941 56.7211 83.7892C56.3184 83.6304 56.0868 83.5872 55.9518 83.5922C55.8924 83.5942 55.829 83.6053 55.7937 83.6586C55.7504 83.7229 55.7726 83.8154 55.8109 83.8767C55.8511 83.943 55.9126 83.9953 55.975 84.0395C56.0847 84.1169 56.2066 84.1742 56.3304 84.2235C56.3808 84.2436 56.4301 84.2627 56.4815 84.2808C57.422 84.6094 61.9301 86.6801 65.4253 85.3583L65.4243 85.3593ZM113.4 57.8883C113.361 57.8602 113.332 57.822 113.333 57.7697C113.333 57.6943 113.329 57.6179 113.326 57.5425L113.401 57.8883H113.4ZM108.678 58.9126C108.675 58.8573 108.692 58.8101 108.743 58.7799C108.721 58.8241 108.699 58.8683 108.678 58.9126ZM108.997 57.9185C108.988 57.823 109.011 57.7385 109.078 57.6672C109.078 57.6672 109.079 57.6662 109.08 57.6652C109.085 57.7607 109.079 57.8511 108.998 57.9185H108.997ZM111.845 51.9358C111.845 51.9358 111.845 51.9368 111.845 51.9378C111.842 51.9368 111.839 51.9358 111.836 51.9348C111.711 51.8895 111.665 51.7951 111.671 51.6664C111.77 51.7307 111.828 51.8212 111.845 51.9368V51.9358ZM111.327 51.5307C111.463 51.3377 111.498 51.3468 111.638 51.6141C111.534 51.586 111.43 51.5588 111.327 51.5307ZM110.531 72.5988C110.518 72.6893 110.485 72.7687 110.405 72.8209C110.413 72.7275 110.431 72.64 110.531 72.5988ZM110.265 73.035C110.267 72.9898 110.293 72.9587 110.335 72.9375C110.339 72.9888 110.323 73.028 110.272 73.0441C110.27 73.0451 110.267 73.0461 110.265 73.0461C110.265 73.0411 110.265 73.0371 110.265 73.034V73.035ZM110.175 73.1959C110.175 73.1959 110.18 73.1939 110.182 73.1919C110.182 73.1939 110.182 73.1969 110.182 73.1989C110.18 73.1999 110.179 73.2009 110.177 73.2019V73.1949L110.175 73.1959ZM110.088 73.3557C110.088 73.3557 110.088 73.3577 110.088 73.3587C110.088 73.3597 110.087 73.3597 110.086 73.3607C110.086 73.3597 110.086 73.3587 110.086 73.3577C110.086 73.3577 110.088 73.3577 110.088 73.3567V73.3557ZM109.891 73.6804C109.871 73.7578 109.84 73.8251 109.766 73.8653C109.764 73.8653 109.763 73.8673 109.761 73.8673C109.761 73.8653 109.761 73.8623 109.761 73.8603C109.757 73.7678 109.798 73.7065 109.891 73.6804ZM109.694 73.9105C109.687 73.9206 109.682 73.9316 109.677 73.9427C109.682 73.9306 109.687 73.9206 109.694 73.9105ZM109.662 74.005C109.662 74.005 109.661 74.0141 109.66 74.0181C109.66 74.0181 109.661 74.009 109.662 74.005ZM109.416 74.1829C109.461 74.1829 109.505 74.1819 109.55 74.1809C109.529 74.2623 109.493 74.3317 109.41 74.3679C109.41 74.3598 109.41 74.3508 109.41 74.3428C109.412 74.2965 109.413 74.2503 109.414 74.205C109.414 74.191 109.409 74.1789 109.399 74.1709C109.404 74.1749 109.409 74.1789 109.415 74.1829H109.416ZM109.021 74.8604C109.042 74.8282 109.062 74.7961 109.083 74.7649C109.09 74.8162 109.068 74.8473 109.026 74.8664C109.022 74.8684 109.018 74.8695 109.013 74.8715C109.015 74.8685 109.019 74.8644 109.021 74.8614V74.8604ZM108.757 75.1981C108.759 75.1951 108.76 75.1921 108.762 75.1891C108.762 75.1901 108.762 75.1911 108.762 75.1931C108.764 75.1901 108.766 75.1871 108.768 75.1841C108.768 75.1891 108.766 75.1931 108.766 75.1971C108.755 75.2474 108.724 75.2846 108.677 75.3087C108.703 75.2715 108.731 75.2353 108.758 75.1992L108.757 75.1981ZM91.2256 70.6046C91.4813 69.8608 91.6374 69.0808 91.9969 68.3771C92.4994 67.3951 93.3271 66.8101 94.3924 66.5588C95.5001 66.2975 96.6279 66.1799 97.7627 66.1376C98.4525 66.1115 99.1423 66.0271 99.8351 66.1236C100.042 66.1517 100.246 66.1899 100.44 66.2613C100.753 66.3779 100.788 66.5226 100.571 66.785C100.493 66.8805 100.397 66.9629 100.305 67.0463C99.3608 67.9017 98.2612 68.5028 97.0941 68.9923C95.3309 69.7321 93.5063 70.2809 91.6485 70.7252C91.5569 70.7473 91.4642 70.7654 91.4229 70.7744C91.4209 70.7744 91.4189 70.7744 91.4169 70.7744C91.2266 70.7905 91.1873 70.7192 91.2276 70.6036L91.2256 70.6046ZM83.3511 61.3832L83.3481 61.4114H83.3431L83.3511 61.3832ZM83.2243 61.4074C83.1931 61.4375 83.1719 61.4255 83.1578 61.3903C83.184 61.3802 83.2061 61.3863 83.2243 61.4074ZM82.9695 61.3441C82.9131 61.3973 82.8648 61.3863 82.8245 61.325C82.8728 61.332 82.9212 61.338 82.9695 61.3441ZM80.583 60.9852C80.5911 60.9822 80.5991 60.9802 80.6072 60.9782C80.6374 60.9701 80.6666 60.9671 80.6958 60.9691C80.7099 60.9691 80.725 60.9721 80.7391 60.9762C80.7421 60.9762 80.7451 60.9782 80.7482 60.9782C80.7522 60.9792 80.7552 60.9802 80.7592 60.9822C80.7643 60.9842 80.7703 60.9862 80.7754 60.9882C80.7864 60.9933 80.7965 60.9973 80.8066 61.0043C80.725 61.0837 80.6495 61.0867 80.583 60.9852ZM76.1061 61.8959C76.1061 61.8959 76.1081 61.8929 76.1081 61.8909C76.1081 61.8888 76.1101 61.8858 76.1121 61.8838C76.1151 61.8788 76.1172 61.8738 76.1212 61.8698C76.1272 61.8607 76.1343 61.8527 76.1413 61.8456C76.1665 61.8225 76.1987 61.8094 76.237 61.8064C76.2108 61.8627 76.1645 61.8898 76.1041 61.8989C76.1041 61.8989 76.1051 61.8969 76.1061 61.8959ZM75.6731 62.2849C75.6751 62.2778 75.6791 62.2718 75.6822 62.2658C75.6953 62.2467 75.7154 62.2346 75.7426 62.2286C75.7174 62.2547 75.6922 62.2809 75.6661 62.307C75.6671 62.299 75.6691 62.2909 75.6721 62.2839L75.6731 62.2849ZM75.5936 62.3874C75.5936 62.3874 75.5936 62.3844 75.5936 62.3824C75.5936 62.3794 75.5936 62.3753 75.5956 62.3723C75.5976 62.3643 75.5996 62.3583 75.6026 62.3512C75.6137 62.3321 75.6318 62.3201 75.66 62.316C75.6379 62.3422 75.6157 62.3673 75.5936 62.3924C75.5936 62.3904 75.5936 62.3884 75.5936 62.3864V62.3874ZM74.6772 63.9444C74.6792 63.9293 74.6833 63.9152 74.6863 63.9002C74.6883 63.8931 74.6903 63.8861 74.6913 63.8781C74.6913 63.876 74.6923 63.874 74.6933 63.872C74.6933 63.872 74.6933 63.871 74.6933 63.87C74.7084 63.8127 74.7286 63.7564 74.7517 63.7001C74.7809 63.7665 74.787 63.8278 74.7769 63.8861C74.7769 63.8881 74.7769 63.8891 74.7769 63.8911C74.7769 63.8931 74.7769 63.8941 74.7769 63.8961C74.7759 63.9032 74.7749 63.9092 74.7719 63.9152C74.7699 63.9263 74.7668 63.9363 74.7628 63.9474C74.7608 63.9534 74.7588 63.9595 74.7558 63.9655C74.7356 64.0188 74.7034 64.069 74.6682 64.1193C74.6621 64.06 74.6661 64.0017 74.6762 63.9454L74.6772 63.9444ZM74.7819 63.9122C74.7819 63.9122 74.7829 63.9082 74.784 63.9062C76.3296 59.8916 82.2465 61.2847 83.1175 61.5139C83.1558 61.524 83.1608 61.5752 83.1256 61.5943C78.6255 63.9303 74.8051 68.9792 74.7447 69.0586C74.3641 65.7899 74.7638 63.9936 74.7819 63.9112V63.9122ZM64.5764 83.3841C64.5764 83.3841 64.5835 83.3831 64.5845 83.3831C64.5825 83.3831 64.5784 83.3841 64.5754 83.3852C64.5754 83.3852 64.5764 83.3852 64.5774 83.3852L64.5764 83.3841ZM64.1072 83.6003C64.0679 83.6173 64.0276 83.6334 63.9884 83.6505C64.0186 83.6103 64.0558 83.5902 64.1072 83.6003ZM61.9493 85.6156C61.9785 85.6176 62.0087 85.6206 62.0379 85.6236C62.0047 85.6628 61.9755 85.6558 61.9493 85.6156Z" fill="white"/>
<path d="M115.551 94.4106L115.597 94.3855C115.597 94.3855 115.268 101.89 108.288 105.328C101.395 108.723 101.122 115.074 101.122 115.074C101.122 115.074 115.789 108.075 123.904 93.704C132.447 78.5733 132.681 79.6398 132.681 79.6398C132.992 81.0691 131.931 83.8806 131.616 85.2888C128.756 98.1287 123.371 109.405 114.369 118.216C106.009 126.4 96.3025 131.314 87.552 134.877C87.5953 134.859 86.4353 130.2 86.395 129.892C85.4465 122.759 87.4896 113.782 93.1426 108.31C99.1632 102.481 108.133 98.6182 115.554 94.4106H115.551Z" fill="url(#paint2_linear_230_1180)"/>
<path d="M45.6464 93.7471C53.3778 108.097 67.8468 115.083 67.8468 115.083C67.8468 115.083 67.737 108.735 60.937 105.347C54.0555 101.917 53.9195 94.4196 53.9195 94.4196C53.9346 94.4276 53.9487 94.4367 53.9638 94.4447C61.2653 98.6423 70.1275 102.495 75.9951 108.317C81.5052 113.785 83.3187 122.761 82.1869 129.893C82.1375 130.201 80.8587 134.86 80.902 134.878C72.2472 131.316 62.676 126.406 54.5368 118.23C45.7783 109.432 40.6942 98.1729 38.1687 85.3521C37.8918 83.9458 36.904 81.1394 37.2514 79.7111C37.2514 79.7111 37.5112 78.6457 45.6474 93.7471H45.6464Z" fill="url(#paint3_linear_230_1180)"/>
<path d="M9.3788 184.239H5.4124C3.82342 184.226 2.67045 183.953 1.95349 183.419C0.663581 182.497 0.0120835 181.254 0 179.694C0 178.121 0.593095 176.866 1.77828 175.93C2.59896 175.293 3.53039 174.974 4.57259 174.974C5.79705 174.974 6.9762 175.364 8.10903 176.144V181.625H9.3788V184.239ZM2.14884 174.661C1.73196 174.661 1.37047 174.512 1.06436 174.213C0.75824 173.915 0.605183 173.55 0.605183 173.121C0.605183 172.691 0.75824 172.308 1.06436 172.009C1.37047 171.71 1.73196 171.561 2.14884 171.561C2.56572 171.561 2.94333 171.713 3.24341 172.019C3.54247 172.324 3.69251 172.691 3.69251 173.121C3.69251 173.55 3.54247 173.914 3.24341 174.213C2.94333 174.513 2.57882 174.661 2.14884 174.661ZM5.33385 181.624V177.645C5.1385 177.515 4.85857 177.45 4.49405 177.45C4.09026 177.45 3.75192 177.586 3.47803 177.86C3.04806 178.341 2.83357 178.913 2.83357 179.577C2.83357 180.942 3.66734 181.625 5.33486 181.625L5.33385 181.624ZM5.45066 174.661C5.03378 174.661 4.67228 174.512 4.36617 174.213C4.06005 173.915 3.90699 173.55 3.90699 173.121C3.90699 172.691 4.06005 172.308 4.36617 172.009C4.67228 171.71 5.03378 171.561 5.45066 171.561C5.86754 171.561 6.24515 171.713 6.54523 172.019C6.84429 172.324 6.99432 172.691 6.99432 173.121C6.99432 173.55 6.84429 173.914 6.54523 174.213C6.24515 174.513 5.88063 174.661 5.45066 174.661Z" fill="white"/>
<path d="M16.3743 184.238H9.08594V181.625H10.825C11.5026 181.625 11.841 181.157 11.841 180.221V175.93H14.5769V180.123C14.5769 180.877 14.5316 181.379 14.4399 181.625H16.3743V184.238ZM10.8834 187.924C10.4534 187.924 10.0848 187.771 9.77973 187.466C9.47462 187.16 9.32056 186.799 9.32056 186.383C9.32056 185.941 9.47362 185.57 9.77973 185.272C10.0858 184.972 10.4534 184.823 10.8834 184.823C11.3133 184.823 11.6617 184.973 11.9679 185.272C12.274 185.57 12.427 185.941 12.427 186.383C12.427 186.799 12.274 187.16 11.9679 187.466C11.6617 187.771 11.3002 187.924 10.8834 187.924ZM14.2053 187.924C13.7753 187.924 13.4068 187.771 13.1017 187.466C12.7966 187.16 12.6425 186.799 12.6425 186.383C12.6425 185.941 12.7956 185.57 13.1017 185.272C13.4078 184.972 13.7753 184.823 14.2053 184.823C14.6353 184.823 14.9837 184.973 15.2898 185.272C15.5959 185.57 15.749 185.941 15.749 186.383C15.749 186.799 15.5959 187.16 15.2898 187.466C14.9837 187.771 14.6222 187.924 14.2053 187.924Z" fill="white"/>
<path d="M16.648 184.239H16.0811V181.625H16.6087C17.1162 181.625 17.371 181.196 17.371 180.338V171.951H20.1451L20.1643 180.162C20.1643 181.215 19.9226 182.106 19.4413 182.834C18.8421 183.769 17.9107 184.238 16.647 184.238L16.648 184.239Z" fill="white"/>
<path d="M25.7732 187.885H24.1318V185.272H25.6563C26.5938 185.272 27.0832 184.927 27.1215 184.239C25.4932 184.213 24.3342 183.94 23.6434 183.419C22.3535 182.497 21.702 181.254 21.6899 179.694C21.6899 178.121 22.276 176.866 23.4481 175.93C24.2688 175.293 25.2062 174.974 26.2615 174.974C27.486 174.974 28.6651 175.364 29.798 176.144V183.829C29.7456 186.52 28.4043 187.872 25.7732 187.885ZM27.0047 181.624V177.645C26.8093 177.515 26.5294 177.45 26.1649 177.45C25.7611 177.45 25.4288 177.587 25.168 177.86C24.7249 178.341 24.5034 178.913 24.5034 179.577C24.5034 180.942 25.3371 181.625 27.0047 181.625V181.624Z" fill="white"/>
<path d="M40.4273 184.239H31.6154V181.625H36.3441V180.143C36.3179 178.751 35.7711 178.056 34.7027 178.056C34.1559 178.056 33.4591 178.427 32.6123 179.168L31.3032 176.905C32.423 175.93 33.5759 175.442 34.7621 175.442C35.9483 175.442 37.0348 175.872 37.8686 176.73C38.7023 177.588 39.1192 178.732 39.1192 180.163V181.625H40.4283V184.239H40.4273Z" fill="white"/>
<path d="M40.7012 184.239H40.1343V181.625H40.6619C41.1694 181.625 41.4242 181.196 41.4242 180.338V171.951H44.1984L44.2175 180.162C44.2175 181.215 43.9758 182.106 43.4945 182.834C42.8954 183.769 41.9639 184.238 40.7002 184.238L40.7012 184.239Z" fill="white"/>
<path d="M48.5164 184.239H45.7422V171.951H48.5164V184.239Z" fill="white"/>
<path d="M61.0417 184.239H58.3259C56.7369 184.226 55.5839 183.953 54.867 183.419C53.5902 182.497 52.9457 181.254 52.9326 179.694C52.9326 178.121 53.5187 176.866 54.6908 175.93C55.5114 175.293 56.4489 174.974 57.5042 174.974C58.7287 174.974 59.9078 175.364 61.0406 176.144V184.239H61.0417ZM55.1801 174.661C54.7502 174.661 54.3816 174.512 54.0765 174.213C53.7704 173.915 53.6174 173.55 53.6174 173.121C53.6174 172.691 53.7704 172.308 54.0765 172.009C54.3826 171.71 54.7502 171.561 55.1801 171.561C55.6101 171.561 55.9585 171.713 56.2646 172.019C56.5708 172.324 56.7238 172.691 56.7238 173.121C56.7238 173.55 56.5708 173.914 56.2646 174.213C55.9585 174.513 55.597 174.661 55.1801 174.661ZM58.2484 181.624V177.645C58.053 177.515 57.7791 177.45 57.4277 177.45C57.0108 177.45 56.6725 177.586 56.4117 177.86C55.9686 178.341 55.7471 178.913 55.7471 179.577C55.7471 180.942 56.5808 181.625 58.2484 181.625V181.624ZM58.4628 174.661C58.0329 174.661 57.6643 174.512 57.3592 174.213C57.0531 173.915 56.9 173.55 56.9 173.121C56.9 172.691 57.0531 172.308 57.3592 172.009C57.6653 171.71 58.0329 171.561 58.4628 171.561C58.8928 171.561 59.2412 171.713 59.5473 172.019C59.8534 172.324 60.0065 172.691 60.0065 173.121C60.0065 173.55 59.8534 173.914 59.5473 174.213C59.2412 174.513 58.8797 174.661 58.4628 174.661Z" fill="white"/>
<path d="M66.6302 187.885H64.9888V185.272H66.5134C67.4508 185.272 67.9332 184.927 67.9594 184.239C66.3704 184.239 65.2104 183.965 64.4813 183.419C63.1914 182.497 62.5399 181.254 62.5278 179.694C62.5278 178.121 63.1209 176.866 64.3061 175.93C65.1268 175.293 66.0582 174.974 67.1004 174.974C68.3249 174.974 69.504 175.364 70.6369 176.144V181.625H71.9268V184.239H70.6369C70.5714 186.657 69.2362 187.873 66.6312 187.886L66.6302 187.885ZM67.8607 181.624V177.645C67.6653 177.515 67.3854 177.45 67.0209 177.45C66.6171 177.45 66.2787 177.587 66.0048 177.86C65.5749 178.341 65.3604 178.913 65.3604 179.577C65.3604 180.942 66.1942 181.625 67.8617 181.625L67.8607 181.624Z" fill="white"/>
<path d="M82.4566 184.239H71.6318V181.625H78.7047V181.157C78.7047 180.324 78.4701 179.632 78.0008 179.079C77.5316 178.526 76.8872 178.25 76.0665 178.25C75.0636 178.25 74.1512 178.796 73.3306 179.888L71.6892 177.86C72.8744 176.352 74.3275 175.597 76.0463 175.597C77.6484 175.597 78.9706 176.189 80.0128 177.372C80.9502 178.516 81.4195 179.934 81.4195 181.624H82.4546V184.238L82.4566 184.239Z" fill="white"/>
<path d="M96.7796 184.239H82.1636V181.625H84.2933V175.93H87.0876V176.944C87.4128 176.489 87.8952 176.054 88.5336 175.638C89.2495 175.195 90.0058 174.974 90.8003 174.974C92.2724 174.974 93.4898 175.52 94.4545 176.613C95.1835 177.601 95.5491 178.641 95.5491 179.734C95.5491 180.358 95.4907 180.989 95.3728 181.625H96.7796V184.239ZM92.5 181.625C92.6299 181.209 92.6953 180.754 92.6953 180.26C92.6953 179.636 92.5715 179.096 92.3238 178.641C91.9592 177.952 91.3923 177.601 90.624 177.588C89.2566 177.588 88.1228 178.537 87.2245 180.435C87.0292 180.969 86.9315 181.365 86.9315 181.625H92.5Z" fill="white"/>
<path d="M97.0918 184.239H96.5249V181.625H97.0525C97.5601 181.625 97.8148 181.196 97.8148 180.338V171.951H100.589L100.608 180.162C100.608 181.215 100.366 182.106 99.8851 182.834C99.286 183.769 98.3545 184.238 97.0908 184.238L97.0918 184.239Z" fill="white"/>
<path d="M104.908 184.239H102.134V171.951H104.908V184.239Z" fill="white"/>
<path d="M118.703 184.239H114.737C113.148 184.226 111.995 183.953 111.278 183.419C109.988 182.497 109.337 181.254 109.324 179.694C109.324 178.121 109.918 176.866 111.103 175.93C111.923 175.293 112.855 174.974 113.897 174.974C115.122 174.974 116.301 175.364 117.433 176.144V181.625H118.703V184.239ZM111.473 174.661C111.056 174.661 110.695 174.512 110.389 174.213C110.083 173.915 109.93 173.55 109.93 173.121C109.93 172.691 110.083 172.308 110.389 172.009C110.695 171.71 111.056 171.561 111.473 171.561C111.89 171.561 112.268 171.713 112.568 172.019C112.867 172.324 113.017 172.691 113.017 173.121C113.017 173.55 112.867 173.914 112.568 174.213C112.268 174.513 111.903 174.661 111.473 174.661ZM114.658 181.624V177.645C114.463 177.515 114.183 177.45 113.819 177.45C113.415 177.45 113.076 177.586 112.802 177.86C112.373 178.341 112.158 178.913 112.158 179.577C112.158 180.942 112.992 181.625 114.659 181.625L114.658 181.624ZM114.775 174.661C114.358 174.661 113.997 174.512 113.691 174.213C113.385 173.915 113.231 173.55 113.231 173.121C113.231 172.691 113.385 172.308 113.691 172.009C113.997 171.71 114.358 171.561 114.775 171.561C115.192 171.561 115.57 171.713 115.87 172.019C116.169 172.324 116.319 172.691 116.319 173.121C116.319 173.55 116.169 173.914 115.87 174.213C115.57 174.513 115.205 174.661 114.775 174.661Z" fill="white"/>
<path d="M125.699 184.238H118.41V181.625H120.149C120.827 181.625 121.165 181.157 121.165 180.221V175.93H123.901V180.123C123.901 180.877 123.856 181.379 123.764 181.625H125.699V184.238ZM120.208 187.924C119.778 187.924 119.409 187.771 119.104 187.466C118.799 187.16 118.645 186.799 118.645 186.383C118.645 185.941 118.798 185.57 119.104 185.272C119.41 184.972 119.778 184.823 120.208 184.823C120.638 184.823 120.986 184.973 121.292 185.272C121.598 185.57 121.751 185.941 121.751 186.383C121.751 186.799 121.598 187.16 121.292 187.466C120.986 187.771 120.624 187.924 120.208 187.924ZM123.53 187.924C123.1 187.924 122.731 187.771 122.426 187.466C122.121 187.16 121.967 186.799 121.967 186.383C121.967 185.941 122.12 185.57 122.426 185.272C122.732 184.972 123.1 184.823 123.53 184.823C123.959 184.823 124.308 184.973 124.614 185.272C124.92 185.57 125.073 185.941 125.073 186.383C125.073 186.799 124.92 187.16 124.614 187.466C124.308 187.771 123.946 187.924 123.53 187.924Z" fill="white"/>
<path d="M131.853 184.96C130.251 184.96 129.143 184.524 128.531 183.653C128.336 184.03 127.782 184.225 126.871 184.238H125.406V181.625H126.715C127.196 181.625 127.438 181.183 127.438 180.298V180.006C127.438 178.575 127.783 177.441 128.474 176.602C129.163 175.764 130.166 175.344 131.483 175.344C132.799 175.344 133.791 175.776 134.541 176.64C135.29 177.506 135.664 178.711 135.664 180.259C135.664 180.949 135.632 181.403 135.567 181.624H136.934V184.237H134.062C133.528 184.706 132.793 184.946 131.854 184.959L131.853 184.96ZM131.599 182.444C132.537 182.444 133.006 181.756 133.006 180.377C133.006 178.712 132.505 177.88 131.502 177.88C130.564 177.893 130.095 178.647 130.095 180.142C130.095 181.638 130.596 182.444 131.599 182.444Z" fill="white"/>
<path d="M140.021 184.238H136.64V181.625H139.414C139.531 181.625 139.591 181.567 139.591 181.449V175.929H142.385V181.215C142.346 183.23 141.557 184.238 140.021 184.238ZM138.203 187.924C137.786 187.924 137.422 187.771 137.108 187.466C136.796 187.16 136.639 186.799 136.639 186.383C136.639 185.941 136.795 185.57 137.108 185.272C137.421 184.972 137.785 184.823 138.203 184.823C138.621 184.823 138.997 184.973 139.298 185.272C139.598 185.57 139.747 185.941 139.747 186.383C139.747 186.799 139.597 187.16 139.298 187.466C138.997 187.771 138.633 187.924 138.203 187.924ZM141.525 187.924C141.108 187.924 140.744 187.771 140.43 187.466C140.117 187.16 139.961 186.799 139.961 186.383C139.961 185.941 140.117 185.57 140.43 185.272C140.743 184.972 141.107 184.823 141.525 184.823C141.943 184.823 142.319 184.973 142.619 185.272C142.92 185.57 143.069 185.941 143.069 186.383C143.069 186.799 142.919 187.16 142.619 187.466C142.319 187.771 141.955 187.924 141.525 187.924Z" fill="white"/>
<path d="M151.724 184.239H144.221V181.625H148.93L148.949 180.143C148.923 178.751 148.369 178.056 147.289 178.056C146.742 178.056 146.044 178.427 145.198 179.168L143.889 176.886C145.022 175.924 146.175 175.442 147.348 175.442C148.586 175.442 149.625 175.872 150.465 176.73C151.304 177.588 151.725 178.732 151.725 180.163V184.24L151.724 184.239Z" fill="white"/>
<path d="M157.606 184.239H155.593C154.07 184.239 153.281 183.232 153.229 181.215V171.951H156.023V181.449C156.023 181.566 156.068 181.625 156.16 181.625H157.606V184.239Z" fill="white"/>
<path d="M165.246 184.239H157.313V181.625H162.198C161.976 179.857 160.498 178.693 157.762 178.134V175.658L164.699 171.659L165.343 174.351L161.416 176.574C163.865 177.394 165.142 179.949 165.246 184.24V184.239Z" fill="white"/>
<path d="M166.868 171.424L166.692 170.37L167.082 170.175C166.782 169.954 166.633 169.623 166.633 169.18C166.633 168.595 166.894 168.16 167.415 167.874C167.597 167.77 167.838 167.718 168.138 167.718C168.438 167.718 168.782 167.802 169.135 167.971L168.939 168.966C168.692 168.888 168.509 168.85 168.392 168.85C168.066 168.85 167.904 168.999 167.904 169.298C167.904 169.623 168.171 169.785 168.706 169.785C168.875 169.785 169.096 169.766 169.37 169.727L169.331 170.78C168.419 170.923 167.598 171.138 166.869 171.424H166.868ZM169.642 184.239H166.848V171.951H169.642V184.239Z" fill="white"/>
<path d="M8.06758 194.484H9.80257V200.71C9.80257 200.992 9.68073 201.131 9.43704 201.131H4.71038C3.5544 201.131 2.63605 200.818 1.95736 200.19C1.09843 199.401 0.662413 198.423 0.652344 197.255C0.662413 196.25 0.864813 195.38 1.25753 194.645L2.8173 195.456C2.5414 196.007 2.40345 196.586 2.40345 197.191C2.40345 198.715 3.1778 199.483 4.7265 199.494H8.06859V194.483L8.06758 194.484ZM4.00954 193.511C3.73364 193.511 3.49498 193.412 3.29359 193.212C3.0922 193.012 2.9915 192.771 2.9915 192.49C2.9915 192.208 3.0922 191.952 3.29359 191.752C3.49498 191.552 3.73364 191.453 4.00954 191.453C4.28545 191.453 4.52108 191.553 4.71743 191.752C4.91379 191.952 5.01146 192.198 5.01146 192.49C5.01146 192.781 4.91278 193.012 4.71743 193.212C4.52108 193.412 4.28545 193.511 4.00954 193.511ZM6.33259 193.511C6.05668 193.511 5.81804 193.412 5.61664 193.212C5.41525 193.012 5.31456 192.771 5.31456 192.49C5.31456 192.208 5.41525 191.952 5.61664 191.752C5.81804 191.552 6.05668 191.453 6.33259 191.453C6.6085 191.453 6.84413 191.553 7.04048 191.752C7.23684 191.952 7.33451 192.198 7.33451 192.49C7.33451 192.781 7.23583 193.012 7.04048 193.212C6.84413 193.412 6.6085 193.511 6.33259 193.511Z" fill="#AC9266"/>
<path d="M12.8253 190.917V201.132H11.0752V190.917H12.8253Z" fill="#AC9266"/>
<path d="M14.2261 204.326H13.3027V202.689H14.0509C15.1435 202.689 15.6902 202.164 15.6902 201.115V194.483H17.4403V201.293C17.4403 203.315 16.3689 204.326 14.2261 204.326Z" fill="#AC9266"/>
<path d="M21.912 201.131H20.4952C19.3916 201.131 18.8247 200.353 18.7925 198.796V190.916H20.5426V199.008C20.5426 199.332 20.6644 199.494 20.9081 199.494H21.911V201.131H21.912Z" fill="#AC9266"/>
<path d="M24.4748 201.132H21.9131V199.494H24.4748V201.132Z" fill="#AC9266"/>
<path d="M26.798 201.132H24.2363V199.494H26.798V201.132Z" fill="#AC9266"/>
<path d="M29.1213 201.132H26.5596V199.494H29.1213V201.132Z" fill="#AC9266"/>
<path d="M31.445 201.132H28.8833V199.494H31.445V201.132Z" fill="#AC9266"/>
<path d="M33.7682 201.132H31.2065V199.494H33.7682V201.132Z" fill="#AC9266"/>
<path d="M36.091 201.132H33.5293V199.494H36.091V201.132Z" fill="#AC9266"/>
<path d="M38.4152 201.132H35.8535V199.494H38.4152V201.132Z" fill="#AC9266"/>
<path d="M47.4861 201.165C46.5416 201.165 45.8256 200.894 45.3373 200.353C44.86 200.872 44.2125 201.131 43.3958 201.131H38.1758V199.494H40.1172V195.619H41.8673V199.494H42.7907C43.2045 199.494 43.4855 199.451 43.6345 199.364C43.9416 199.18 44.0957 198.705 44.0957 197.937V194.986H45.8458V197.953C45.8458 198.98 46.2123 199.493 46.9434 199.493C47.6744 199.493 48.0732 198.947 48.0732 197.856V194.483H49.8233V197.758C49.8122 198.44 49.7387 199.018 49.6007 199.493H50.9219V201.13H48.1366C47.9352 201.152 47.7177 201.163 47.4841 201.163L47.4861 201.165ZM43.6033 193.511C43.3274 193.511 43.0887 193.412 42.8873 193.212C42.6859 193.012 42.5852 192.772 42.5852 192.49C42.5852 192.209 42.6859 191.952 42.8873 191.752C43.0887 191.552 43.3274 191.453 43.6033 191.453C43.8792 191.453 44.1148 191.553 44.3112 191.752C44.5075 191.952 44.6052 192.199 44.6052 192.49C44.6052 192.782 44.5065 193.012 44.3112 193.212C44.1148 193.412 43.8792 193.511 43.6033 193.511ZM44.6535 191.258C44.3776 191.258 44.139 191.158 43.9376 190.958C43.7362 190.758 43.6355 190.518 43.6355 190.237C43.6355 189.955 43.7362 189.699 43.9376 189.499C44.139 189.299 44.3776 189.199 44.6535 189.199C44.9294 189.199 45.1651 189.3 45.3614 189.499C45.5578 189.699 45.6555 189.945 45.6555 190.237C45.6555 190.528 45.5568 190.758 45.3614 190.958C45.1651 191.158 44.9294 191.258 44.6535 191.258ZM45.9263 193.511C45.6504 193.511 45.4118 193.412 45.2104 193.212C45.009 193.012 44.9083 192.772 44.9083 192.49C44.9083 192.209 45.009 191.952 45.2104 191.752C45.4118 191.552 45.6504 191.453 45.9263 191.453C46.2022 191.453 46.4379 191.553 46.6342 191.752C46.8306 191.952 46.9283 192.199 46.9283 192.49C46.9283 192.782 46.8296 193.012 46.6342 193.212C46.4379 193.412 46.2022 193.511 45.9263 193.511Z" fill="#AC9266"/>
<path d="M55.7299 201.131H50.6851V199.494H51.5762C52.3717 199.494 52.7695 198.97 52.7695 197.921V194.483H54.4722V197.839C54.4722 198.467 54.3927 199.017 54.2336 199.493H55.7299V201.13V201.131ZM51.9105 193.51C51.6346 193.51 51.396 193.411 51.1946 193.211C50.9932 193.011 50.8925 192.77 50.8925 192.489C50.8925 192.208 50.9932 191.951 51.1946 191.751C51.396 191.551 51.6346 191.452 51.9105 191.452C52.1864 191.452 52.4221 191.552 52.6184 191.751C52.8148 191.951 52.9124 192.197 52.9124 192.489C52.9124 192.78 52.8138 193.011 52.6184 193.211C52.4221 193.411 52.1864 193.51 51.9105 193.51ZM54.1228 193.51C53.8469 193.51 53.6082 193.411 53.4069 193.211C53.2055 193.011 53.1048 192.77 53.1048 192.489C53.1048 192.208 53.2055 191.951 53.4069 191.751C53.6082 191.551 53.8469 191.452 54.1228 191.452C54.3987 191.452 54.6343 191.552 54.8307 191.751C55.0271 191.951 55.1247 192.197 55.1247 192.489C55.1247 192.78 55.026 193.011 54.8307 193.211C54.6343 193.411 54.3987 193.51 54.1228 193.51Z" fill="#AC9266"/>
<path d="M57.4327 199.494V195.619H59.1828V199.494H60.1062C60.52 199.494 60.801 199.451 60.95 199.364C61.2571 199.181 61.4112 198.705 61.4112 197.937V194.986H63.1613V197.953C63.1613 198.98 63.5278 199.493 64.2588 199.493C64.9899 199.493 65.3887 198.947 65.3887 197.856V194.483H67.1387V197.758C67.1277 198.861 66.9374 199.688 66.5658 200.239C66.1308 200.898 65.5417 201.228 64.7996 201.228C63.8551 201.228 63.1391 200.937 62.6507 200.353C62.1734 200.871 61.526 201.131 60.7093 201.131H55.4893V199.493H57.4307L57.4327 199.494Z" fill="#AC9266"/>
<path d="M71.9299 201.131H68.4126V199.494H71.6751C72.6408 199.494 73.1231 198.932 73.1231 197.807V190.916H74.8732V197.807C74.8732 199.905 73.8915 201.013 71.9289 201.131H71.9299ZM71.8504 198.942L70.1798 198.974L69.48 190.948L71.0871 190.964L71.8514 198.942H71.8504Z" fill="#AC9266"/>
<path d="M77.8971 190.917V201.132H76.147V190.917H77.8971Z" fill="#AC9266"/>
<path d="M82.369 204.326H81.2866V202.689H82.2734C83.2814 202.689 83.812 202.17 83.8644 201.132H83.4979C82.2029 201.121 81.2755 200.899 80.7126 200.467C79.6946 199.721 79.179 198.721 79.1689 197.468C79.1689 196.192 79.6352 195.176 80.5696 194.419C81.2171 193.912 81.9542 193.657 82.7819 193.657C83.7687 193.657 84.676 193.944 85.5027 194.517V201.099C85.4604 203.239 84.4152 204.315 82.368 204.326H82.369ZM83.7536 199.494V195.49C83.4354 195.274 83.09 195.165 82.7195 195.165C82.2734 195.165 81.9028 195.322 81.6058 195.635C81.1708 196.122 80.9533 196.7 80.9533 197.37C80.9533 198.775 81.7437 199.484 83.3246 199.494H83.7546H83.7536Z" fill="#AC9266"/>
<path d="M93.5886 204.326H92.3471C90.2465 204.326 89.1852 203.321 89.1641 201.31V199.494H95.2431V198.748C95.2431 197.937 95.0256 197.262 94.5905 196.722C94.1022 196.149 93.4557 195.862 92.6491 195.862C92.0127 195.862 91.4186 196.074 90.8668 196.495C90.6755 196.635 90.4852 196.835 90.2939 197.095L89.307 195.846C90.1559 194.744 91.2646 194.193 92.633 194.193C93.9169 194.193 94.9722 194.674 95.7999 195.636C96.5642 196.577 96.9458 197.76 96.9458 199.187V199.495H98.0434V201.132H90.6755C90.6755 202.17 91.2908 202.689 92.5213 202.689H93.5876V204.327L93.5886 204.326ZM95.085 204.537C94.8091 204.537 94.5704 204.436 94.369 204.237C94.1676 204.037 94.0669 203.797 94.0669 203.516C94.0669 203.234 94.1676 202.978 94.369 202.778C94.5704 202.578 94.8091 202.478 95.085 202.478C95.3609 202.478 95.5965 202.578 95.7929 202.778C95.9892 202.978 96.0869 203.224 96.0869 203.516C96.0869 203.807 95.9882 204.037 95.7929 204.237C95.5965 204.437 95.3609 204.537 95.085 204.537Z" fill="#AC9266"/>
<path d="M102.659 201.131H97.8057V199.494H98.5055C99.301 199.494 99.6987 198.97 99.6987 197.921V194.483H101.402V197.839C101.402 198.467 101.322 199.017 101.163 199.493H102.659V201.13V201.131ZM100.192 193.169C99.9162 193.169 99.6776 193.07 99.4762 192.87C99.2748 192.67 99.1741 192.43 99.1741 192.148C99.1741 191.867 99.2748 191.61 99.4762 191.41C99.6776 191.21 99.9162 191.111 100.192 191.111C100.468 191.111 100.704 191.211 100.9 191.41C101.096 191.61 101.194 191.857 101.194 192.148C101.194 192.44 101.095 192.67 100.9 192.87C100.704 193.07 100.468 193.169 100.192 193.169Z" fill="#AC9266"/>
<path d="M103.153 204.359C102.877 204.359 102.638 204.259 102.437 204.06C102.235 203.859 102.135 203.619 102.135 203.338C102.135 203.056 102.235 202.8 102.437 202.6C102.638 202.4 102.877 202.3 103.153 202.3C103.429 202.3 103.664 202.4 103.861 202.6C104.057 202.8 104.155 203.046 104.155 203.338C104.155 203.629 104.056 203.859 103.861 204.06C103.664 204.26 103.429 204.359 103.153 204.359ZM107.752 201.132H102.421V199.495H103.598C104.393 199.495 104.791 198.971 104.791 197.922V194.484H106.494V197.841C106.494 198.468 106.414 199.019 106.255 199.494H107.752V201.131V201.132ZM105.476 204.359C105.2 204.359 104.961 204.259 104.76 204.06C104.559 203.859 104.458 203.619 104.458 203.338C104.458 203.056 104.559 202.8 104.76 202.6C104.961 202.4 105.2 202.3 105.476 202.3C105.752 202.3 105.987 202.4 106.184 202.6C106.38 202.8 106.478 203.046 106.478 203.338C106.478 203.629 106.379 203.859 106.184 204.06C105.987 204.26 105.752 204.359 105.476 204.359Z" fill="#AC9266"/>
<path d="M116.823 201.165C115.878 201.165 115.163 200.894 114.674 200.353C114.197 200.872 113.549 201.131 112.733 201.131H107.513V199.494H109.454V195.619H111.204V199.494H112.128C112.541 199.494 112.822 199.451 112.971 199.364C113.279 199.18 113.433 198.705 113.433 197.937V194.986H115.183V197.953C115.183 198.98 115.549 199.493 116.28 199.493C117.011 199.493 117.41 198.947 117.41 197.856V194.483H119.16V197.758C119.149 198.44 119.076 199.018 118.938 199.493H120.259V201.13H117.474C117.272 201.152 117.055 201.163 116.821 201.163L116.823 201.165ZM112.94 193.511C112.664 193.511 112.426 193.412 112.224 193.212C112.023 193.012 111.922 192.772 111.922 192.49C111.922 192.209 112.023 191.952 112.224 191.752C112.426 191.552 112.664 191.453 112.94 191.453C113.216 191.453 113.452 191.553 113.648 191.752C113.844 191.952 113.942 192.199 113.942 192.49C113.942 192.782 113.843 193.012 113.648 193.212C113.452 193.412 113.216 193.511 112.94 193.511ZM113.99 191.258C113.715 191.258 113.476 191.158 113.275 190.958C113.073 190.758 112.972 190.518 112.972 190.237C112.972 189.955 113.073 189.699 113.275 189.499C113.476 189.299 113.715 189.199 113.99 189.199C114.266 189.199 114.502 189.3 114.698 189.499C114.895 189.699 114.992 189.945 114.992 190.237C114.992 190.528 114.894 190.758 114.698 190.958C114.502 191.158 114.266 191.258 113.99 191.258ZM115.263 193.511C114.987 193.511 114.749 193.412 114.547 193.212C114.346 193.012 114.245 192.772 114.245 192.49C114.245 192.209 114.346 191.952 114.547 191.752C114.749 191.552 114.987 191.453 115.263 191.453C115.539 191.453 115.775 191.553 115.971 191.752C116.167 191.952 116.265 192.199 116.265 192.49C116.265 192.782 116.166 193.012 115.971 193.212C115.775 193.412 115.539 193.511 115.263 193.511Z" fill="#AC9266"/>
<path d="M120.021 201.131V199.494H121.979C122.222 199.494 122.344 199.332 122.344 199.007V194.483H124.094V198.796C124.062 200.353 123.495 201.131 122.391 201.131H120.02H120.021ZM121.071 193.51C120.795 193.51 120.557 193.411 120.355 193.211C120.154 193.011 120.053 192.77 120.053 192.489C120.053 192.208 120.154 191.951 120.355 191.751C120.557 191.551 120.795 191.452 121.071 191.452C121.347 191.452 121.583 191.552 121.779 191.751C121.976 191.951 122.073 192.197 122.073 192.489C122.073 192.78 121.975 193.011 121.779 193.211C121.583 193.411 121.347 193.51 121.071 193.51ZM123.394 193.51C123.118 193.51 122.88 193.411 122.678 193.211C122.477 193.011 122.376 192.77 122.376 192.489C122.376 192.208 122.477 191.951 122.678 191.751C122.88 191.551 123.118 191.452 123.394 191.452C123.67 191.452 123.906 191.552 124.102 191.751C124.299 191.951 124.396 192.197 124.396 192.489C124.396 192.78 124.298 193.011 124.102 193.211C123.906 193.411 123.67 193.51 123.394 193.51Z" fill="#AC9266"/>
<path d="M128.567 204.326H127.485V202.689H128.472C129.48 202.689 130.01 202.17 130.063 201.132C128.535 201.132 127.485 200.91 126.912 200.467C125.894 199.721 125.378 198.721 125.368 197.468C125.368 196.192 125.834 195.176 126.769 194.419C127.416 193.912 128.153 193.657 128.981 193.657C129.968 193.657 130.875 193.944 131.702 194.517V199.494H132.801V201.132H131.702C131.649 203.25 130.604 204.315 128.567 204.326ZM129.952 199.494V195.49C129.634 195.274 129.288 195.165 128.918 195.165C128.472 195.165 128.101 195.322 127.804 195.635C127.369 196.122 127.151 196.7 127.151 197.37C127.151 198.775 127.942 199.484 129.523 199.494H129.953H129.952Z" fill="#AC9266"/>
<path d="M135.123 201.132H132.562V199.494H135.123V201.132Z" fill="#AC9266"/>
<path d="M137.448 201.132H134.886V199.494H137.448V201.132Z" fill="#AC9266"/>
<path d="M139.771 201.132H137.209V199.494H139.771V201.132Z" fill="#AC9266"/>
<path d="M142.095 201.132H139.533V199.494H142.095V201.132Z" fill="#AC9266"/>
<path d="M144.418 201.132H141.856V199.494H144.418V201.132Z" fill="#AC9266"/>
<path d="M146.741 201.132H144.179V199.494H146.741V201.132Z" fill="#AC9266"/>
<path d="M149.065 201.132H146.503V199.494H149.065V201.132Z" fill="#AC9266"/>
<path d="M151.388 201.132H148.826V199.494H151.388V201.132Z" fill="#AC9266"/>
<path d="M153.711 201.132H151.149V199.494H153.711V201.132Z" fill="#AC9266"/>
<path d="M156.035 201.132H153.473V199.494H156.035V201.132Z" fill="#AC9266"/>
<path d="M162.893 201.131H155.795V199.494H160.045C159.801 197.538 158.517 196.316 156.193 195.829V194.11L161.62 190.916L162.017 192.603L158.214 194.808C160.23 195.488 161.434 197.052 161.826 199.494H162.892V201.131H162.893Z" fill="#AC9266"/>
<path d="M166.363 201.131H162.656V199.494H163.531V190.917H165.281V199.494H166.363V201.131Z" fill="#AC9266"/>
<path d="M166.124 199.494H166.267C166.914 199.483 167.237 198.996 167.237 198.035V190.916H168.988V197.889C168.988 198.743 168.802 199.462 168.431 200.046C167.975 200.771 167.264 201.132 166.298 201.132H166.123V199.495L166.124 199.494Z" fill="#AC9266"/>
<path d="M0.664551 209.88L1.3523 209.807C1.43185 210.299 1.68661 210.547 2.11658 210.547C2.29381 210.547 2.44485 210.509 2.57072 210.432C2.7268 210.337 2.80434 210.198 2.80434 210.016C2.80434 209.834 2.69559 209.698 2.47808 209.614C2.39853 209.583 2.20922 209.526 1.91016 209.444C1.53154 209.341 1.26571 209.213 1.11366 209.063C0.89716 208.85 0.789413 208.59 0.789413 208.283C0.789413 208.072 0.843789 207.881 0.953547 207.711C1.05827 207.547 1.19925 207.423 1.37849 207.338C1.56981 207.249 1.79939 207.204 2.06926 207.204C2.45291 207.204 2.76104 207.291 2.99364 207.465C3.25948 207.666 3.39945 207.971 3.41354 208.378L2.70465 208.41C2.67444 208.207 2.60596 208.061 2.50023 207.973C2.40155 207.892 2.25454 207.852 2.06221 207.852C1.85679 207.852 1.69568 207.898 1.57887 207.99C1.50436 208.05 1.4671 208.13 1.4671 208.23C1.4671 208.322 1.50234 208.4 1.57283 208.464C1.65943 208.547 1.87794 208.637 2.22836 208.736C2.61906 208.848 2.8718 208.935 2.98559 209.001C3.33601 209.206 3.51122 209.544 3.51122 210.013C3.51122 210.246 3.45382 210.457 3.33903 210.646C3.22424 210.836 3.06816 210.976 2.8718 211.065C2.66839 211.159 2.41465 211.206 2.10954 211.206C1.24053 211.206 0.759205 210.764 0.664551 209.88Z" fill="#AC9266"/>
<path d="M7.17936 211.139H6.40903L6.10393 210.258H4.70224L4.41526 211.139H3.66406L5.0285 207.269H5.77767L7.17936 211.139ZM5.87534 209.607L5.39502 208.17L4.91974 209.607H5.87534Z" fill="#AC9266"/>
<path d="M7.46973 211.139V207.269H8.1756V208.792H9.56218V207.269H10.2711V211.139H9.56218V209.446H8.1756V211.139H7.46973Z" fill="#AC9266"/>
<path d="M11.411 211.139L10.5742 207.269H11.2992L11.8279 209.927L12.4683 207.269H13.3101L13.9234 209.971L14.4621 207.269H15.174L14.3221 211.139H13.5729L12.8741 208.246L12.1783 211.139H11.411Z" fill="#AC9266"/>
<path d="M18.6076 211.139H17.8372L17.5321 210.258H16.1305L15.8435 211.139H15.0923L16.4567 207.269H17.2059L18.6076 211.139ZM17.3036 209.607L16.8232 208.17L16.348 209.607H17.3036Z" fill="#AC9266"/>
<path d="M20.5127 211.139V207.269H21.2186V211.139H20.5127Z" fill="#AC9266"/>
<path d="M21.8145 211.139V207.269H22.5022L23.9361 209.853V207.269H24.5916V211.139H23.8827L22.47 208.616V211.139H21.8145Z" fill="#AC9266"/>
<path d="M26.0421 211.139V207.923H25.0039V207.269H27.7871V207.923H26.749V211.139H26.0431H26.0421Z" fill="#AC9266"/>
<path d="M28.1563 211.139V207.269H30.7532V207.923H28.8622V208.78H30.6223V209.434H28.8622V210.488H30.8217V211.139H28.1553H28.1563Z" fill="#AC9266"/>
<path d="M31.3354 211.139V207.269H32.8247C33.1349 207.269 33.3614 207.289 33.5044 207.327C33.7471 207.394 33.9274 207.532 34.0462 207.743C34.1489 207.921 34.2002 208.124 34.2002 208.354C34.2002 208.972 33.8921 209.331 33.2759 209.43C33.4511 209.542 33.6011 209.679 33.725 209.844C33.7995 209.942 33.9102 210.122 34.0573 210.384L34.4852 211.138H33.6404L33.1278 210.296C32.9738 210.043 32.8902 209.907 32.8751 209.884C32.7543 209.711 32.6435 209.604 32.5408 209.565C32.4663 209.536 32.3474 209.521 32.1853 209.521H32.0423V211.137H31.3365L31.3354 211.139ZM32.0413 208.906H32.5639C32.8237 208.906 32.9738 208.903 33.013 208.897C33.2023 208.874 33.3312 208.806 33.4007 208.695C33.448 208.617 33.4722 208.52 33.4722 208.405C33.4722 208.134 33.3514 207.979 33.1107 207.935C33.0594 207.927 32.8872 207.923 32.5931 207.923H32.0413V208.906Z" fill="#AC9266"/>
<path d="M34.7886 211.139V207.269H35.4763L36.9102 209.853V207.269H37.5658V211.139H36.8569L35.4441 208.616V211.139H34.7886Z" fill="#AC9266"/>
<path d="M41.3878 211.139H40.6175L40.3124 210.258H38.9107L38.6238 211.139H37.8726L39.237 207.269H39.9862L41.3878 211.139ZM40.0838 209.607L39.6035 208.17L39.1282 209.607H40.0838Z" fill="#AC9266"/>
<path d="M42.4635 211.139V207.923H41.4253V207.269H44.2085V207.923H43.1704V211.139H42.4645H42.4635Z" fill="#AC9266"/>
<path d="M44.5566 211.139V207.269H45.2625V211.139H44.5566Z" fill="#AC9266"/>
<path d="M45.7065 209.226C45.7065 208.581 45.8687 208.073 46.1929 207.703C46.4869 207.369 46.8897 207.202 47.4012 207.202C47.943 207.202 48.3649 207.389 48.668 207.762C48.96 208.121 49.106 208.604 49.106 209.208C49.106 209.812 48.961 210.29 48.671 210.645C48.3679 211.019 47.949 211.205 47.4123 211.205C46.8756 211.205 46.4527 211.022 46.1486 210.656C45.8546 210.303 45.7076 209.825 45.7076 209.225L45.7065 209.226ZM46.4366 209.2C46.4366 209.58 46.5111 209.888 46.6601 210.127C46.8323 210.4 47.081 210.538 47.4093 210.538C47.7376 210.538 47.9883 210.399 48.1585 210.122C48.3015 209.885 48.374 209.575 48.374 209.192C48.374 208.809 48.3025 208.496 48.1585 208.268C47.9943 208.004 47.7446 207.872 47.4093 207.872C47.074 207.872 46.8233 208.006 46.6551 208.274C46.5101 208.505 46.4376 208.814 46.4376 209.201L46.4366 209.2Z" fill="#AC9266"/>
<path d="M49.5796 211.139V207.269H50.2673L51.7013 209.853V207.269H52.3568V211.139H51.6479L50.2351 208.616V211.139H49.5796Z" fill="#AC9266"/>
<path d="M56.1794 211.139H55.409L55.1039 210.258H53.7022L53.4153 211.139H52.6641L54.0285 207.269H54.7777L56.1794 211.139ZM54.8753 209.607L54.395 208.17L53.9197 209.607H54.8753Z" fill="#AC9266"/>
<path d="M56.4844 211.139V207.299H57.1933V210.488H58.9514V211.139H56.4844Z" fill="#AC9266"/>
<path d="M64.1681 211.139H63.3978L63.0927 210.258H61.691L61.404 211.139H60.6528L62.0173 207.269H62.7664L64.1681 211.139ZM62.8641 209.607L62.3838 208.17L61.9085 209.607H62.8641Z" fill="#AC9266"/>
<path d="M66.6969 209.717L67.3847 209.957C67.1772 210.79 66.6919 211.206 65.9266 211.206C65.4251 211.206 65.0304 211.013 64.7394 210.628C64.4665 210.268 64.3306 209.805 64.3306 209.238C64.3306 208.64 64.4655 208.158 64.7364 207.792C65.0284 207.399 65.4402 207.202 65.9709 207.202C66.3979 207.202 66.7453 207.341 67.0141 207.621C67.1732 207.787 67.293 208.025 67.3726 208.333L66.6717 208.518C66.6315 208.317 66.5449 208.159 66.413 208.043C66.281 207.927 66.1209 207.87 65.9336 207.87C65.3516 207.87 65.0596 208.306 65.0596 209.179C65.0596 210.051 65.3466 210.537 65.9195 210.537C66.3233 210.537 66.5811 210.263 66.6949 209.716L66.6969 209.717Z" fill="#AC9266"/>
<path d="M71.0631 211.139H70.2928L69.9877 210.258H68.586L68.299 211.139H67.5479L68.9123 207.269H69.6615L71.0631 211.139ZM69.7591 209.607L69.2788 208.17L68.8035 209.607H69.7591Z" fill="#AC9266"/>
<path d="M71.3472 207.269H72.6401C72.9321 207.269 73.1547 207.293 73.3067 207.342C73.7206 207.475 74.0086 207.803 74.1697 208.325C74.2462 208.574 74.2835 208.879 74.2835 209.241C74.2835 209.901 74.1223 210.403 73.8001 210.749C73.6783 210.882 73.5121 210.984 73.3037 211.056C73.1496 211.111 72.9412 211.139 72.6774 211.139H71.3472V207.269ZM72.0561 207.923V210.488H72.5817C72.7801 210.488 72.9231 210.475 73.0117 210.449C73.2453 210.385 73.4024 210.207 73.4819 209.916C73.5302 209.742 73.5534 209.505 73.5534 209.206C73.5534 208.685 73.4618 208.331 73.2795 208.144C73.1949 208.054 73.0852 207.992 72.9533 207.959C72.8526 207.935 72.6582 207.923 72.3723 207.923H72.0561Z" fill="#AC9266"/>
<path d="M74.7979 211.139V207.269H77.3948V207.923H75.5038V208.78H77.2639V209.434H75.5038V210.488H77.4633V211.139H74.7969H74.7979Z" fill="#AC9266"/>
<path d="M77.9639 211.139V207.269H79.0232L79.6606 209.91L80.2869 207.269H81.3493V211.139H80.6907V208.091L79.9949 211.139H79.3152L78.6224 208.091V211.139H77.9639Z" fill="#AC9266"/>
<path d="M82.8845 211.139V209.511L81.5996 207.269H82.4303L83.253 208.801L84.0606 207.269H84.8763L83.5884 209.517V211.139H82.8845Z" fill="#AC9266"/>
<path d="M86.7837 211.139V207.269H89.1843V207.923H87.4906V208.839H88.9537V209.493H87.4906V211.139H86.7847H86.7837Z" fill="#AC9266"/>
<path d="M89.5376 209.226C89.5376 208.581 89.6997 208.073 90.024 207.703C90.318 207.369 90.7208 207.202 91.2323 207.202C91.774 207.202 92.196 207.389 92.4991 207.762C92.7911 208.121 92.9371 208.604 92.9371 209.208C92.9371 209.812 92.7921 210.29 92.5021 210.645C92.199 211.019 91.7801 211.205 91.2434 211.205C90.7067 211.205 90.2838 211.022 89.9797 210.656C89.6856 210.303 89.5386 209.825 89.5386 209.225L89.5376 209.226ZM90.2676 209.2C90.2676 209.58 90.3422 209.888 90.4912 210.127C90.6634 210.4 90.9121 210.538 91.2404 210.538C91.5686 210.538 91.8194 210.399 91.9895 210.122C92.1325 209.885 92.205 209.575 92.205 209.192C92.205 208.809 92.1335 208.496 91.9895 208.268C91.8254 208.004 91.5757 207.872 91.2404 207.872C90.905 207.872 90.6543 208.006 90.4861 208.274C90.3411 208.505 90.2687 208.814 90.2687 209.201L90.2676 209.2Z" fill="#AC9266"/>
<path d="M93.4043 211.139V207.269H94.8936C95.2037 207.269 95.4303 207.289 95.5733 207.327C95.816 207.394 95.9962 207.532 96.115 207.743C96.2177 207.921 96.2691 208.124 96.2691 208.354C96.2691 208.972 95.961 209.331 95.3447 209.43C95.5199 209.542 95.67 209.679 95.7938 209.844C95.8683 209.942 95.9791 210.122 96.1261 210.384L96.5541 211.138H95.7092L95.1967 210.296C95.0426 210.043 94.959 209.907 94.9439 209.884C94.8231 209.711 94.7123 209.604 94.6096 209.565C94.5351 209.536 94.4163 209.521 94.2542 209.521H94.1112V211.137H93.4053L93.4043 211.139ZM94.1102 208.906H94.6328C94.8926 208.906 95.0426 208.903 95.0819 208.897C95.2712 208.874 95.4001 208.806 95.4696 208.695C95.5169 208.617 95.5411 208.52 95.5411 208.405C95.5411 208.134 95.4202 207.979 95.1796 207.935C95.1282 207.927 94.956 207.923 94.662 207.923H94.1102V208.906Z" fill="#AC9266"/>
<path d="M100.73 209.717L101.418 209.957C101.21 210.79 100.725 211.206 99.9598 211.206C99.4583 211.206 99.0636 211.013 98.7726 210.628C98.4997 210.268 98.3638 209.805 98.3638 209.238C98.3638 208.64 98.4987 208.158 98.7696 207.792C99.0616 207.399 99.4734 207.202 100.004 207.202C100.431 207.202 100.778 207.341 101.047 207.621C101.206 207.787 101.326 208.025 101.406 208.333L100.705 208.518C100.665 208.317 100.578 208.159 100.446 208.043C100.314 207.927 100.154 207.87 99.9668 207.87C99.3848 207.87 99.0928 208.306 99.0928 209.179C99.0928 210.051 99.3798 210.537 99.9527 210.537C100.357 210.537 100.614 210.263 100.728 209.716L100.73 209.717Z" fill="#AC9266"/>
<path d="M101.792 209.226C101.792 208.581 101.955 208.073 102.279 207.703C102.573 207.369 102.976 207.202 103.487 207.202C104.029 207.202 104.451 207.389 104.754 207.762C105.046 208.121 105.192 208.604 105.192 209.208C105.192 209.812 105.047 210.29 104.757 210.645C104.454 211.019 104.035 211.205 103.498 211.205C102.962 211.205 102.539 211.022 102.235 210.656C101.941 210.303 101.793 209.825 101.793 209.225L101.792 209.226ZM102.523 209.2C102.523 209.58 102.597 209.888 102.746 210.127C102.918 210.4 103.167 210.538 103.495 210.538C103.824 210.538 104.074 210.399 104.244 210.122C104.387 209.885 104.46 209.575 104.46 209.192C104.46 208.809 104.388 208.496 104.244 208.268C104.08 208.004 103.831 207.872 103.495 207.872C103.16 207.872 102.909 208.006 102.741 208.274C102.596 208.505 102.524 208.814 102.524 209.201L102.523 209.2Z" fill="#AC9266"/>
<path d="M108.817 211.139H108.047L107.742 210.258H106.34L106.053 211.139H105.302L106.666 207.269H107.415L108.817 211.139ZM107.513 209.607L107.033 208.17L106.557 209.607H107.513Z" fill="#AC9266"/>
<path d="M111.345 209.717L112.033 209.957C111.826 210.79 111.34 211.206 110.575 211.206C110.074 211.206 109.679 211.013 109.388 210.628C109.115 210.268 108.979 209.805 108.979 209.238C108.979 208.64 109.114 208.158 109.385 207.792C109.677 207.399 110.089 207.202 110.619 207.202C111.046 207.202 111.394 207.341 111.663 207.621C111.822 207.787 111.941 208.025 112.021 208.333L111.32 208.518C111.28 208.317 111.193 208.159 111.061 208.043C110.929 207.927 110.769 207.87 110.582 207.87C110 207.87 109.708 208.306 109.708 209.179C109.708 210.051 109.995 210.537 110.568 210.537C110.972 210.537 111.23 210.263 111.343 209.716L111.345 209.717Z" fill="#AC9266"/>
<path d="M112.554 211.139V207.269H113.26V208.792H114.646V207.269H115.355V211.139H114.646V209.446H113.26V211.139H112.554Z" fill="#AC9266"/>
<path d="M115.977 211.139V207.269H116.683V211.139H115.977Z" fill="#AC9266"/>
<path d="M117.279 211.139V207.269H117.967L119.401 209.853V207.269H120.056V211.139H119.348L117.935 208.616V211.139H117.279Z" fill="#AC9266"/>
<path d="M122.349 209.717V209.065H123.874V210.605C123.704 210.787 123.47 210.935 123.173 211.048C122.898 211.154 122.633 211.207 122.376 211.207C121.612 211.207 121.088 210.879 120.805 210.221C120.667 209.907 120.597 209.563 120.597 209.192C120.597 208.337 120.897 207.738 121.497 207.397C121.724 207.268 122.004 207.203 122.336 207.203C123.181 207.203 123.678 207.582 123.829 208.34L123.125 208.487C123.019 208.076 122.755 207.871 122.336 207.871C121.996 207.871 121.739 207.995 121.564 208.241C121.407 208.466 121.327 208.772 121.327 209.16C121.327 209.548 121.403 209.878 121.553 210.119C121.726 210.398 121.986 210.538 122.331 210.538C122.627 210.538 122.903 210.427 123.16 210.206V209.717H122.35H122.349Z" fill="#AC9266"/>
<path d="M129.238 211.139H128.468L128.163 210.258H126.761L126.474 211.139H125.723L127.087 207.269H127.836L129.238 211.139ZM127.934 209.607L127.454 208.17L126.978 209.607H127.934Z" fill="#AC9266"/>
<path d="M129.534 211.139V207.269H130.222L131.656 209.853V207.269H132.311V211.139H131.602L130.189 208.616V211.139H129.534Z" fill="#AC9266"/>
<path d="M132.971 207.269H134.264C134.556 207.269 134.778 207.293 134.93 207.342C135.344 207.475 135.632 207.803 135.793 208.325C135.87 208.574 135.907 208.879 135.907 209.241C135.907 209.901 135.746 210.403 135.424 210.749C135.302 210.882 135.136 210.984 134.927 211.056C134.773 211.111 134.565 211.139 134.301 211.139H132.971V207.269ZM133.68 207.923V210.488H134.205C134.404 210.488 134.547 210.475 134.635 210.449C134.869 210.385 135.026 210.207 135.105 209.916C135.154 209.742 135.177 209.505 135.177 209.206C135.177 208.685 135.085 208.331 134.903 208.144C134.818 208.054 134.71 207.992 134.577 207.959C134.476 207.935 134.282 207.923 133.995 207.923H133.679H133.68Z" fill="#AC9266"/>
<path d="M140.3 209.717L140.988 209.957C140.781 210.79 140.295 211.206 139.53 211.206C139.029 211.206 138.633 211.013 138.343 210.628C138.07 210.268 137.934 209.805 137.934 209.238C137.934 208.64 138.069 208.158 138.34 207.792C138.632 207.399 139.044 207.202 139.574 207.202C140.001 207.202 140.349 207.341 140.618 207.621C140.777 207.787 140.897 208.025 140.976 208.333L140.275 208.518C140.234 208.317 140.148 208.159 140.016 208.043C139.885 207.927 139.724 207.87 139.537 207.87C138.955 207.87 138.663 208.306 138.663 209.179C138.663 210.051 138.95 210.537 139.523 210.537C139.927 210.537 140.185 210.263 140.298 209.716L140.3 209.717Z" fill="#AC9266"/>
<path d="M141.364 209.226C141.364 208.581 141.526 208.073 141.85 207.703C142.144 207.369 142.547 207.202 143.058 207.202C143.6 207.202 144.022 207.389 144.325 207.762C144.617 208.121 144.763 208.604 144.763 209.208C144.763 209.812 144.618 210.29 144.328 210.645C144.025 211.019 143.606 211.205 143.07 211.205C142.533 211.205 142.11 211.022 141.806 210.656C141.512 210.303 141.365 209.825 141.365 209.225L141.364 209.226ZM142.094 209.2C142.094 209.58 142.168 209.888 142.316 210.127C142.489 210.4 142.737 210.538 143.066 210.538C143.394 210.538 143.645 210.399 143.815 210.122C143.958 209.885 144.03 209.575 144.03 209.192C144.03 208.809 143.959 208.496 143.815 208.268C143.651 208.004 143.401 207.872 143.066 207.872C142.73 207.872 142.479 208.006 142.311 208.274C142.166 208.505 142.094 208.814 142.094 209.201V209.2Z" fill="#AC9266"/>
<path d="M145.236 211.139V207.269H145.923L147.357 209.853V207.269H148.013V211.139H147.304L145.891 208.616V211.139H145.236Z" fill="#AC9266"/>
<path d="M148.497 209.88L149.185 209.807C149.264 210.299 149.519 210.547 149.949 210.547C150.126 210.547 150.277 210.509 150.403 210.432C150.559 210.337 150.637 210.198 150.637 210.016C150.637 209.834 150.528 209.698 150.311 209.614C150.231 209.583 150.042 209.526 149.743 209.444C149.364 209.341 149.098 209.213 148.946 209.063C148.73 208.85 148.622 208.59 148.622 208.283C148.622 208.072 148.676 207.881 148.787 207.711C148.892 207.547 149.033 207.423 149.212 207.338C149.403 207.249 149.633 207.204 149.903 207.204C150.286 207.204 150.595 207.291 150.827 207.465C151.093 207.666 151.233 207.971 151.247 208.378L150.538 208.41C150.508 208.207 150.439 208.061 150.334 207.973C150.234 207.892 150.088 207.852 149.896 207.852C149.69 207.852 149.529 207.898 149.412 207.99C149.338 208.05 149.301 208.13 149.301 208.23C149.301 208.322 149.336 208.4 149.406 208.464C149.493 208.547 149.711 208.637 150.062 208.736C150.454 208.848 150.705 208.935 150.819 209.001C151.17 209.206 151.345 209.544 151.345 210.013C151.345 210.246 151.287 210.457 151.173 210.646C151.058 210.836 150.902 210.976 150.705 211.065C150.502 211.159 150.248 211.206 149.943 211.206C149.074 211.206 148.593 210.764 148.498 209.88H148.497Z" fill="#AC9266"/>
<path d="M151.846 207.269H152.555V209.364C152.555 209.703 152.564 209.919 152.581 210.012C152.645 210.362 152.872 210.537 153.264 210.537C153.656 210.537 153.853 210.38 153.901 210.067C153.923 209.935 153.934 209.716 153.934 209.41V207.268H154.64V209.301C154.64 209.673 154.631 209.929 154.615 210.067C154.58 210.373 154.499 210.607 154.371 210.771C154.146 211.061 153.784 211.205 153.284 211.205C152.73 211.205 152.34 211.05 152.113 210.742C152.012 210.605 151.946 210.462 151.914 210.314C151.867 210.095 151.844 209.767 151.844 209.331V207.268L151.846 207.269Z" fill="#AC9266"/>
<path d="M155.317 211.139V207.299H156.026V210.488H157.784V211.139H155.317Z" fill="#AC9266"/>
<path d="M158.991 211.139V207.923H157.952V207.269H160.736V207.923H159.697V211.139H158.992H158.991Z" fill="#AC9266"/>
<path d="M161.083 211.139V207.269H161.789V211.139H161.083Z" fill="#AC9266"/>
<path d="M162.385 211.139V207.269H163.073L164.507 209.853V207.269H165.162V211.139H164.453L163.041 208.616V211.139H162.385Z" fill="#AC9266"/>
<path d="M167.455 209.717V209.065H168.98V210.605C168.809 210.787 168.576 210.935 168.279 211.048C168.004 211.154 167.739 211.207 167.482 211.207C166.718 211.207 166.193 210.879 165.91 210.221C165.772 209.907 165.703 209.563 165.703 209.192C165.703 208.337 166.003 207.738 166.603 207.397C166.83 207.268 167.11 207.203 167.442 207.203C168.287 207.203 168.784 207.582 168.934 208.34L168.23 208.487C168.124 208.076 167.861 207.871 167.442 207.871C167.102 207.871 166.845 207.995 166.67 208.241C166.511 208.466 166.433 208.772 166.433 209.16C166.433 209.548 166.508 209.878 166.658 210.119C166.832 210.398 167.091 210.538 167.437 210.538C167.733 210.538 168.009 210.427 168.266 210.206V209.717H167.456H167.455Z" fill="#AC9266"/>
<defs>
<linearGradient id="paint0_linear_230_1180" x1="86.0043" y1="0.775072" x2="83.5301" y2="113.697" gradientUnits="userSpaceOnUse">
<stop offset="0.48" stop-color="#BD9A62"/>
<stop offset="0.83" stop-color="#A18242"/>
<stop offset="0.99" stop-color="#937732"/>
</linearGradient>
<linearGradient id="paint1_linear_230_1180" x1="45.8929" y1="67.7428" x2="123.987" y2="67.7428" gradientUnits="userSpaceOnUse">
<stop offset="0.48" stop-color="#BD9A62"/>
<stop offset="0.83" stop-color="#A18242"/>
<stop offset="0.99" stop-color="#937732"/>
</linearGradient>
<linearGradient id="paint2_linear_230_1180" x1="111.89" y1="-10.4636" x2="106.384" y2="247.311" gradientUnits="userSpaceOnUse">
<stop stop-color="#937732"/>
<stop offset="0.14" stop-color="#9B7D3B"/>
<stop offset="0.38" stop-color="#B19054"/>
<stop offset="0.48" stop-color="#BD9A62"/>
<stop offset="0.83" stop-color="#A18242"/>
<stop offset="0.99" stop-color="#937732"/>
</linearGradient>
<linearGradient id="paint3_linear_230_1180" x1="62.3025" y1="-11.523" x2="56.795" y2="246.251" gradientUnits="userSpaceOnUse">
<stop stop-color="#937732"/>
<stop offset="0.14" stop-color="#9B7D3B"/>
<stop offset="0.38" stop-color="#B19054"/>
<stop offset="0.48" stop-color="#BD9A62"/>
<stop offset="0.83" stop-color="#A18242"/>
<stop offset="0.99" stop-color="#937732"/>
</linearGradient>
</defs>
</svg>
